<?xml version="1.0" standalone="no"?>
<!DOCTYPE svg PUBLIC "-//W3C//DTD SVG 20010904//EN"
 "http://www.w3.org/TR/2001/REC-SVG-20010904/DTD/svg10.dtd">
<svg version="1.0" xmlns="http://www.w3.org/2000/svg"
 width="1094.000000pt" height="353.000000pt" viewBox="0 0 1094.000000 353.000000"
 preserveAspectRatio="xMidYMid meet">
<metadata>
Created by potrace 1.16, written by Peter Selinger 2001-2019
</metadata>
<g transform="translate(0.000000,353.000000) scale(0.100000,-0.100000)"
fill="#000000" stroke="none">
<path d="M5613 3218 c-109 -112 -140 -329 -69 -484 26 -57 100 -144 122 -144
21 0 18 8 -21 53 -63 73 -80 133 -80 282 0 149 17 209 80 282 19 23 35 44 35
47 0 18 -31 1 -67 -36z"/>
<path d="M6080 3247 c0 -8 11 -24 24 -36 35 -33 76 -133 88 -214 19 -124 -24
-298 -88 -358 -24 -23 -32 -49 -14 -49 5 0 25 16 44 35 99 98 138 258 101 413
-19 80 -45 131 -93 182 -40 41 -62 51 -62 27z"/>
<path d="M5160 3221 c-133 -43 -240 -170 -240 -284 0 -89 58 -165 142 -187 53
-15 132 -5 176 20 28 17 34 18 38 5 4 -8 12 -15 20 -15 12 0 21 23 40 105 9
39 22 55 45 55 11 0 19 6 19 13 0 9 -27 12 -100 13 -78 1 -100 -2 -100 -12 0
-8 10 -14 24 -14 45 0 54 -8 46 -43 -16 -74 -56 -102 -142 -102 -84 0 -144 69
-133 155 10 87 36 142 89 195 117 117 266 88 266 -51 0 -31 4 -44 14 -44 16 0
65 184 53 197 -4 4 -19 -5 -34 -19 l-26 -27 -31 22 c-32 23 -121 33 -166 18z"/>
<path d="M5876 3050 c-47 -15 -76 -49 -76 -90 0 -43 20 -65 70 -75 51 -11 70
-23 70 -45 0 -36 -35 -60 -87 -60 -54 0 -86 13 -59 23 20 8 21 53 1 61 -38 14
-67 -32 -45 -74 34 -63 189 -49 225 21 20 38 19 82 -2 102 -10 8 -39 21 -65
27 -66 17 -76 32 -44 65 40 40 119 30 85 -11 -10 -12 -9 -18 3 -30 23 -24 48
-7 48 33 0 29 -5 36 -35 49 -38 16 -47 16 -89 4z"/>
<path d="M3590 1900 c0 -360 -4 -630 -9 -630 -30 0 -196 57 -250 85 -36 19
-66 33 -67 32 -2 -1 10 -22 27 -46 16 -24 29 -48 29 -53 0 -4 -619 -8 -1375
-8 -1368 0 -1375 0 -1375 -20 0 -20 7 -20 1375 -20 1305 0 1374 -1 1368 -17
-3 -10 -17 -32 -29 -50 -13 -17 -24 -34 -24 -37 0 -4 24 7 53 23 55 31 176 75
240 86 l37 7 0 -626 0 -626 2010 0 2010 0 0 620 0 620 1520 0 c1443 0 1519 -1
1513 -17 -3 -10 -17 -32 -29 -50 -13 -17 -24 -34 -24 -36 0 -3 34 12 75 33 42
21 113 48 158 60 45 11 89 24 97 27 8 3 -25 16 -75 29 -49 13 -126 42 -170 63
-44 22 -81 39 -82 38 -1 -2 11 -22 28 -46 16 -24 29 -48 29 -53 0 -4 -684 -8
-1520 -8 l-1520 0 0 625 0 625 -2010 0 -2010 0 0 -630z m3980 -635 l0 -1225
-1965 0 -1965 0 0 1225 0 1225 1965 0 1965 0 0 -1225z"/>
<path d="M5590 1795 c-14 -8 -40 -14 -57 -15 -24 0 -33 -5 -33 -16 0 -14 8
-16 45 -12 l45 6 0 -142 c0 -77 -4 -146 -8 -153 -4 -6 -24 -14 -45 -18 -70
-13 -37 -25 73 -25 111 0 148 14 70 26 l-40 7 0 178 c0 192 0 192 -50 164z"/>
<path d="M3990 1295 l0 -25 1615 0 1615 0 0 25 0 25 -1615 0 -1615 0 0 -25z"/>
<path d="M4994 1240 c-42 -9 -54 -18 -65 -48 -12 -30 9 -59 35 -49 19 7 22 47
4 47 -22 1 25 30 48 30 29 0 74 -37 74 -60 0 -25 -46 -77 -115 -130 -30 -23
-55 -46 -55 -51 0 -5 47 -9 104 -9 l104 0 6 31 c9 44 8 49 -8 49 -7 0 -16 -9
-19 -20 -4 -17 -14 -20 -58 -20 -58 0 -59 -1 23 59 60 43 75 71 64 116 -11 44
-78 70 -142 55z"/>
<path d="M6941 1196 c-9 -11 -7 -15 13 -20 l24 -6 -45 -176 c-24 -98 -42 -183
-39 -191 8 -19 34 -16 44 5 5 9 15 41 22 70 11 47 14 52 34 46 36 -11 46 -25
46 -65 0 -41 26 -69 65 -69 26 0 61 36 70 71 9 37 -12 47 -26 12 -13 -35 -39
-64 -50 -57 -5 3 -9 27 -9 55 0 46 -2 50 -35 66 -40 19 -37 27 29 75 42 30 66
37 46 13 -16 -19 -6 -45 18 -45 31 0 47 26 34 55 -19 42 -70 34 -136 -20 -31
-25 -58 -45 -60 -45 -2 0 9 51 25 113 16 61 29 115 29 120 0 13 -87 7 -99 -7z"/>
<path d="M5467 1163 c-4 -3 -7 -51 -7 -105 l0 -98 -100 0 c-82 0 -100 -3 -100
-15 0 -12 18 -15 100 -15 l100 0 0 -100 c0 -79 3 -100 14 -100 21 0 26 23 26
115 l0 84 97 3 c66 2 98 7 101 16 3 9 -21 12 -97 12 l-101 0 0 89 c0 108 -9
139 -33 114z"/>
<path d="M6587 1163 c-4 -3 -7 -51 -7 -105 l0 -98 -100 0 c-82 0 -100 -3 -100
-15 0 -12 18 -15 100 -15 l100 0 0 -100 c0 -79 3 -100 14 -100 21 0 26 23 26
115 l0 84 97 3 c66 2 98 7 101 16 3 9 -21 12 -97 12 l-101 0 0 89 c0 108 -9
139 -33 114z"/>
<path d="M4041 1034 c-12 -15 -21 -30 -21 -35 0 -4 -3 -14 -6 -23 -4 -10 -1
-16 9 -16 9 0 20 15 27 34 12 37 37 54 46 32 3 -7 -7 -59 -21 -116 -19 -74
-23 -106 -15 -114 21 -21 43 10 66 94 18 70 28 90 58 118 47 42 80 41 84 -4 2
-17 -6 -69 -18 -114 -15 -60 -18 -86 -10 -94 21 -21 43 10 66 94 18 70 28 90
58 118 74 67 109 14 67 -99 -12 -30 -21 -61 -21 -70 0 -23 33 -49 62 -49 44 0
104 78 80 102 -7 7 -17 -2 -31 -30 -20 -40 -46 -59 -56 -42 -3 5 6 43 20 85
39 116 23 155 -64 155 -28 0 -48 -8 -70 -26 -24 -20 -31 -22 -31 -10 0 38
-100 50 -142 16 -25 -19 -26 -19 -43 0 -26 29 -69 26 -94 -6z"/>
<path d="M4715 1048 c-31 -17 -45 -39 -45 -74 0 -39 13 -50 79 -70 56 -16 66
-37 31 -69 -22 -20 -95 -24 -113 -6 -8 8 -8 11 1 11 7 0 12 12 12 26 0 22 -4
25 -27 22 -25 -3 -28 -7 -28 -38 0 -41 28 -60 88 -60 73 0 137 48 137 103 0
29 -36 58 -85 71 -38 9 -50 17 -50 31 0 26 45 50 78 41 24 -6 26 -9 16 -27
-13 -25 0 -43 27 -37 29 5 30 52 2 72 -26 18 -93 21 -123 4z"/>
<path d="M5861 1042 c-58 -29 -94 -84 -95 -142 -1 -41 4 -54 27 -77 24 -25 35
-28 90 -28 47 0 71 6 100 23 20 13 37 30 37 38 0 20 -20 17 -44 -5 -46 -42
-134 -46 -150 -6 -16 43 5 119 46 162 34 37 118 44 87 7 -17 -20 -3 -44 25
-44 22 0 36 16 36 41 0 5 -9 18 -20 29 -25 25 -92 27 -139 2z"/>
<path d="M6155 1048 c-31 -17 -45 -39 -45 -74 0 -39 13 -50 79 -70 56 -16 66
-37 31 -69 -22 -20 -95 -24 -113 -6 -8 8 -8 11 1 11 7 0 12 12 12 26 0 22 -4
25 -27 22 -25 -3 -28 -7 -28 -38 0 -41 28 -60 88 -60 73 0 137 48 137 103 0
29 -36 58 -85 71 -38 9 -50 17 -50 31 0 26 45 50 78 41 24 -6 26 -9 16 -27
-13 -25 0 -43 27 -37 29 5 30 52 2 72 -26 18 -93 21 -123 4z"/>
<path d="M1925 2120 c-11 -18 5 -30 41 -30 19 0 34 -2 34 -5 0 -14 -111 -453
-120 -472 -8 -19 -18 -23 -50 -23 -29 0 -40 -4 -40 -15 0 -13 22 -15 135 -15
113 0 135 2 135 15 0 11 -12 15 -44 15 -25 0 -47 4 -51 9 -3 5 7 60 22 121
l28 112 64 -6 c36 -3 68 -11 72 -17 4 -7 5 -28 2 -47 -5 -27 -3 -34 8 -30 15
5 72 205 63 220 -9 13 -23 -1 -38 -37 -19 -44 -45 -57 -110 -53 l-53 3 30 113
30 114 115 -4 c135 -4 142 -9 142 -100 0 -51 10 -73 23 -50 3 4 8 49 12 100
l8 92 -226 0 c-140 0 -228 -4 -232 -10z"/>
<path d="M9152 1910 c-35 -21 -72 -74 -72 -102 0 -30 19 -20 40 21 11 22 30
47 42 55 43 31 88 15 88 -32 0 -32 -48 -219 -62 -242 -17 -26 -58 -44 -72 -30
-7 7 -6 10 3 10 21 0 9 64 -12 68 -25 5 -57 -26 -57 -54 0 -53 101 -74 144
-31 l23 23 27 -23 c19 -16 40 -23 68 -23 36 0 47 6 85 45 27 29 43 55 43 70 0
35 -17 31 -34 -7 -26 -63 -91 -102 -120 -73 -21 22 -20 38 10 161 29 116 52
154 91 154 21 0 23 -2 13 -14 -19 -23 -8 -61 18 -64 31 -5 52 15 52 49 0 58
-85 80 -137 35 l-28 -24 -28 24 c-35 29 -80 31 -125 4z"/>
</g>
</svg>
