<?xml version="1.0" standalone="no"?>
<!DOCTYPE svg PUBLIC "-//W3C//DTD SVG 20010904//EN"
 "http://www.w3.org/TR/2001/REC-SVG-20010904/DTD/svg10.dtd">
<svg version="1.0" xmlns="http://www.w3.org/2000/svg"
 width="1138.000000pt" height="353.000000pt" viewBox="0 0 1138.000000 353.000000"
 preserveAspectRatio="xMidYMid meet">
<metadata>
Created by potrace 1.16, written by Peter Selinger 2001-2019
</metadata>
<g transform="translate(0.000000,353.000000) scale(0.100000,-0.100000)"
fill="#000000" stroke="none">
<path d="M5833 3218 c-109 -112 -140 -329 -69 -484 26 -57 100 -144 122 -144
21 0 18 8 -21 53 -63 73 -80 133 -80 282 0 149 17 209 80 282 19 23 35 44 35
47 0 18 -31 1 -67 -36z"/>
<path d="M6300 3247 c0 -8 11 -24 24 -36 35 -33 76 -133 88 -214 19 -124 -24
-298 -88 -358 -24 -23 -32 -49 -14 -49 5 0 25 16 44 35 99 98 138 258 101 413
-19 80 -45 131 -93 182 -40 41 -62 51 -62 27z"/>
<path d="M5380 3221 c-133 -43 -240 -170 -240 -284 0 -89 58 -165 142 -187 53
-15 132 -5 176 20 28 17 34 18 38 5 4 -8 12 -15 20 -15 12 0 21 23 40 105 9
39 22 55 45 55 11 0 19 6 19 13 0 9 -27 12 -100 13 -78 1 -100 -2 -100 -12 0
-8 10 -14 24 -14 45 0 54 -8 46 -43 -16 -74 -56 -102 -142 -102 -84 0 -144 69
-133 155 10 87 36 142 89 195 117 117 266 88 266 -51 0 -31 4 -44 14 -44 16 0
65 184 53 197 -4 4 -19 -5 -34 -19 l-26 -27 -31 22 c-32 23 -121 33 -166 18z"/>
<path d="M6096 3050 c-47 -15 -76 -49 -76 -90 0 -43 20 -65 70 -75 51 -11 70
-23 70 -45 0 -36 -35 -60 -87 -60 -54 0 -86 13 -59 23 20 8 21 53 1 61 -38 14
-67 -32 -45 -74 34 -63 189 -49 225 21 20 38 19 82 -2 102 -10 8 -39 21 -65
27 -66 17 -76 32 -44 65 40 40 119 30 85 -11 -10 -12 -9 -18 3 -30 23 -24 48
-7 48 33 0 29 -5 36 -35 49 -38 16 -47 16 -89 4z"/>
<path d="M3590 1900 c0 -360 -4 -630 -9 -630 -30 0 -196 57 -250 85 -36 19
-66 33 -67 32 -2 -1 10 -22 27 -46 16 -24 29 -48 29 -53 0 -4 -619 -8 -1375
-8 -1368 0 -1375 0 -1375 -20 0 -20 7 -20 1375 -20 1305 0 1374 -1 1368 -17
-3 -10 -17 -32 -29 -50 -13 -17 -24 -34 -24 -37 0 -4 24 7 53 23 55 31 176 75
240 86 l37 7 0 -626 0 -626 2225 0 2225 0 0 620 0 620 1520 0 c836 0 1520 -4
1520 -8 0 -5 -13 -29 -29 -53 -17 -24 -28 -45 -26 -47 2 -2 20 8 42 22 45 30
146 69 223 85 90 20 89 22 -10 48 -52 13 -129 41 -170 61 -41 20 -79 39 -83
40 -4 2 6 -18 23 -44 16 -26 30 -52 30 -56 0 -4 -684 -8 -1520 -8 l-1520 0 0
625 0 625 -2225 0 -2225 0 0 -630z m4410 -635 l0 -1225 -2180 0 -2180 0 0
1225 0 1225 2180 0 2180 0 0 -1225z"/>
<path d="M5800 1815 c-14 -8 -40 -14 -57 -15 -24 0 -33 -5 -33 -16 0 -14 8
-16 45 -12 l45 6 0 -142 c0 -77 -4 -146 -8 -153 -4 -6 -24 -14 -45 -18 -70
-13 -37 -25 73 -25 111 0 148 14 70 26 l-40 7 0 178 c0 192 0 192 -50 164z"/>
<path d="M3990 1320 c0 -20 7 -20 1830 -20 1823 0 1830 0 1830 20 0 20 -7 20
-1830 20 -1823 0 -1830 0 -1830 -20z"/>
<path d="M5014 1260 c-42 -9 -54 -18 -65 -48 -12 -30 9 -59 35 -49 19 7 22 47
4 47 -22 1 25 30 48 30 29 0 74 -37 74 -60 0 -25 -46 -77 -115 -130 -30 -23
-55 -46 -55 -51 0 -5 47 -9 104 -9 l104 0 6 31 c9 44 8 49 -8 49 -7 0 -16 -9
-19 -20 -4 -17 -14 -20 -58 -20 -58 0 -59 -1 23 59 60 43 75 71 64 116 -11 44
-78 70 -142 55z"/>
<path d="M5644 1260 c-42 -9 -54 -18 -65 -48 -12 -30 9 -59 35 -49 19 7 22 47
4 47 -22 1 25 30 48 30 29 0 74 -37 74 -60 0 -25 -46 -77 -115 -130 -30 -23
-55 -46 -55 -51 0 -5 47 -9 104 -9 l104 0 6 31 c9 44 8 49 -8 49 -7 0 -16 -9
-19 -20 -4 -17 -14 -20 -58 -20 -58 0 -59 -1 23 59 60 43 75 71 64 116 -11 44
-78 70 -142 55z"/>
<path d="M4041 1054 c-12 -15 -21 -30 -21 -35 0 -4 -3 -14 -6 -23 -4 -10 -1
-16 9 -16 9 0 20 15 27 34 12 37 37 54 46 32 3 -7 -7 -59 -21 -116 -19 -74
-23 -106 -15 -114 21 -21 43 10 66 94 18 70 28 90 58 118 47 42 80 41 84 -4 2
-17 -6 -69 -18 -114 -15 -60 -18 -86 -10 -94 21 -21 43 10 66 94 18 70 28 90
58 118 74 67 109 14 67 -99 -12 -30 -21 -61 -21 -70 0 -23 33 -49 62 -49 44 0
104 78 80 102 -7 7 -17 -2 -31 -30 -20 -40 -46 -59 -56 -42 -3 5 6 43 20 85
39 116 23 155 -64 155 -28 0 -48 -8 -70 -26 -24 -20 -31 -22 -31 -10 0 38
-100 50 -142 16 -25 -19 -26 -19 -43 0 -26 29 -69 26 -94 -6z"/>
<path d="M4643 1072 c-11 -7 -43 -72 -43 -87 0 -3 6 -5 13 -5 8 0 21 18 30 40
16 40 33 51 43 26 3 -7 -7 -59 -21 -116 -19 -74 -23 -106 -15 -114 22 -22 44
10 67 100 17 71 28 94 53 117 30 27 88 41 62 15 -7 -7 -12 -20 -12 -31 0 -14
6 -18 28 -15 30 3 42 38 22 64 -16 19 -80 18 -108 -2 -21 -15 -25 -15 -41 0
-19 17 -58 21 -78 8z"/>
<path d="M5365 1068 c-31 -17 -45 -39 -45 -74 0 -39 13 -50 79 -70 56 -16 66
-37 31 -69 -22 -20 -95 -24 -113 -6 -8 8 -8 11 1 11 7 0 12 12 12 26 0 22 -4
25 -27 22 -25 -3 -28 -7 -28 -38 0 -41 28 -60 88 -60 73 0 137 48 137 103 0
29 -36 58 -85 71 -38 9 -50 17 -50 31 0 26 45 50 78 41 24 -6 26 -9 16 -27
-13 -25 0 -43 27 -37 29 5 30 52 2 72 -26 18 -93 21 -123 4z"/>
<path d="M6441 1054 c-12 -15 -21 -30 -21 -35 0 -4 -3 -14 -6 -23 -4 -10 -1
-16 9 -16 9 0 20 15 27 34 12 37 37 54 46 32 3 -7 -7 -59 -21 -116 -19 -74
-23 -106 -15 -114 21 -21 43 10 66 94 18 70 28 90 58 118 47 42 80 41 84 -4 2
-17 -6 -69 -18 -114 -15 -60 -18 -86 -10 -94 21 -21 43 10 66 94 18 70 28 90
58 118 74 67 109 14 67 -99 -12 -30 -21 -61 -21 -70 0 -23 33 -49 62 -49 44 0
104 78 80 102 -7 7 -17 -2 -31 -30 -20 -40 -46 -59 -56 -42 -3 5 6 43 20 85
39 116 23 155 -64 155 -28 0 -48 -8 -70 -26 -24 -20 -31 -22 -31 -10 0 38
-100 50 -142 16 -25 -19 -26 -19 -43 0 -26 29 -69 26 -94 -6z"/>
<path d="M7113 1060 c-76 -50 -103 -161 -53 -215 22 -24 31 -26 78 -23 28 3
52 3 52 1 0 -2 -6 -19 -14 -37 -17 -41 -51 -66 -89 -66 -23 0 -27 3 -22 19 8
27 -18 45 -44 31 -23 -12 -27 -40 -9 -58 7 -7 38 -12 71 -12 63 0 122 21 137
50 15 29 81 301 75 311 -4 5 -18 9 -33 9 -15 0 -47 3 -72 5 -35 4 -52 1 -77
-15z m101 -16 c19 -19 20 -36 4 -104 -24 -103 -128 -140 -128 -45 0 49 29 123
57 145 31 24 46 25 67 4z"/>
<path d="M7383 1072 c-11 -7 -43 -72 -43 -87 0 -3 6 -5 13 -5 8 0 21 18 30 40
16 40 33 51 43 26 3 -7 -7 -59 -21 -116 -19 -74 -23 -106 -15 -114 22 -22 44
10 67 100 17 71 28 94 53 117 30 27 88 41 62 15 -7 -7 -12 -20 -12 -31 0 -14
6 -18 28 -15 30 3 42 38 22 64 -16 19 -80 18 -108 -2 -21 -15 -25 -15 -41 0
-19 17 -58 21 -78 8z"/>
<path d="M5930 965 c0 -13 29 -15 200 -15 171 0 200 2 200 15 0 13 -29 15
-200 15 -171 0 -200 -2 -200 -15z"/>
<path d="M9705 2126 c-121 -73 -216 -339 -174 -490 16 -57 49 -86 99 -86 35 0
48 7 89 45 150 141 204 489 84 544 -35 16 -53 14 -98 -13z m93 -36 c14 -27 10
-126 -8 -192 l-11 -38 -79 0 c-44 0 -80 3 -80 8 0 19 31 106 56 157 45 91 94
117 122 65z m-28 -268 c0 -5 -9 -35 -20 -66 -46 -134 -104 -202 -146 -172 -15
12 -18 27 -18 88 1 40 7 92 13 116 l12 42 79 0 c44 0 80 -4 80 -8z"/>
<path d="M1951 1898 c-36 -25 -80 -92 -69 -104 4 -4 25 9 47 29 28 25 53 38
86 42 25 4 49 5 52 2 3 -3 -13 -67 -36 -140 -50 -164 -51 -179 -13 -175 27 3
28 5 59 158 18 85 32 156 33 157 0 1 39 4 88 5 79 3 87 5 87 23 0 19 -8 20
-151 23 -142 2 -152 1 -183 -20z"/>
</g>
</svg>
