<?xml version="1.0" encoding="UTF-8" standalone="no"?>
<svg
   width="595.275574pt"
   height="209.763779pt"
   viewBox="0 0 595.275574 209.763779"
   version="1.2"
   id="svg59"
   sodipodi:docname="iust.svg"
   inkscape:version="1.1 (c4e8f9ed74, 2021-05-24)"
   xmlns:inkscape="http://www.inkscape.org/namespaces/inkscape"
   xmlns:sodipodi="http://sodipodi.sourceforge.net/DTD/sodipodi-0.dtd"
   xmlns="http://www.w3.org/2000/svg"
   xmlns:svg="http://www.w3.org/2000/svg">
  <defs
     id="defs63" />
  <sodipodi:namedview
     id="namedview61"
     pagecolor="#ffffff"
     bordercolor="#666666"
     borderopacity="1.0"
     inkscape:pageshadow="2"
     inkscape:pageopacity="0.0"
     inkscape:pagecheckerboard="0"
     inkscape:document-units="pt"
     showgrid="false"
     inkscape:zoom="1.603879"
     inkscape:cx="396.53864"
     inkscape:cy="139.66141"
     inkscape:window-width="1920"
     inkscape:window-height="1014"
     inkscape:window-x="0"
     inkscape:window-y="29"
     inkscape:window-maximized="1"
     inkscape:current-layer="svg59" />
  <g
     id="surface4250"
     style="fill:#ffffff">
    <path
       style="stroke:none;fill-rule:evenodd;fill:#ffffff;fill-opacity:1"
       d="M 101.335938 70.140625 L 101.453125 70.296875 L 101.53125 70.488281 L 101.605469 70.644531 L 101.605469 70.835938 L 101.644531 71.027344 L 101.605469 71.222656 L 101.605469 71.414062 L 101.53125 71.605469 L 101.453125 71.761719 L 101.335938 71.914062 L 101.222656 72.070312 L 101.105469 72.222656 L 100.953125 72.378906 L 100.757812 72.492188 L 100.605469 72.609375 L 100.414062 72.6875 L 100.179688 72.761719 L 99.988281 72.839844 L 99.527344 72.917969 L 71.039062 72.917969 L 70.578125 72.839844 L 70.386719 72.761719 L 70.152344 72.6875 L 69.960938 72.609375 L 69.808594 72.492188 L 69.613281 72.378906 L 69.460938 72.222656 L 69.34375 72.070312 L 69.230469 71.914062 L 69.113281 71.761719 L 69.035156 71.605469 L 68.996094 71.414062 L 68.960938 71.222656 L 68.921875 71.027344 L 68.960938 70.835938 L 68.996094 70.644531 L 69.035156 70.488281 L 69.113281 70.296875 L 69.230469 70.140625 L 69.34375 69.988281 L 69.460938 69.832031 L 69.613281 69.71875 L 69.808594 69.601562 L 69.960938 69.488281 L 70.152344 69.371094 L 70.386719 69.292969 L 70.578125 69.253906 L 70.808594 69.179688 L 99.757812 69.179688 L 99.988281 69.253906 L 100.179688 69.292969 L 100.414062 69.371094 L 100.605469 69.488281 L 100.757812 69.601562 L 100.953125 69.71875 L 101.105469 69.832031 L 101.222656 69.988281 Z M 101.335938 70.140625 "
       id="path2" />
    <path
       style="stroke:none;fill-rule:evenodd;fill:#ffffff;fill-opacity:1"
       d="M 104.265625 63.9375 L 104.382812 64.089844 L 104.460938 64.246094 L 104.535156 64.4375 L 104.574219 64.515625 L 104.574219 64.589844 L 104.613281 64.707031 L 104.613281 64.863281 L 104.574219 64.976562 L 104.574219 65.054688 L 104.535156 65.132812 L 104.460938 65.324219 L 104.382812 65.476562 L 104.265625 65.632812 L 103.957031 65.941406 L 103.765625 66.054688 L 103.574219 66.171875 L 103.339844 66.289062 L 103.109375 66.363281 L 102.878906 66.441406 L 102.609375 66.519531 L 102.070312 66.597656 L 67.765625 66.597656 L 67.226562 66.519531 L 66.992188 66.441406 L 66.722656 66.363281 L 66.492188 66.289062 L 66.300781 66.171875 L 66.066406 66.054688 L 65.914062 65.941406 L 65.722656 65.785156 L 65.566406 65.632812 L 65.453125 65.476562 L 65.375 65.324219 L 65.296875 65.132812 L 65.296875 65.054688 L 65.257812 64.976562 L 65.257812 64.589844 L 65.296875 64.515625 L 65.296875 64.4375 L 65.375 64.246094 L 65.453125 64.089844 L 65.566406 63.9375 L 65.722656 63.78125 L 65.914062 63.628906 L 66.066406 63.511719 L 66.300781 63.398438 L 66.492188 63.28125 L 66.722656 63.203125 L 66.992188 63.125 L 67.226562 63.050781 L 67.765625 62.972656 L 102.070312 62.972656 L 102.609375 63.050781 L 102.878906 63.125 L 103.339844 63.28125 L 103.574219 63.398438 L 103.765625 63.511719 L 103.957031 63.628906 L 104.113281 63.78125 Z M 104.265625 63.9375 "
       id="path4" />
    <path
       style="stroke:none;fill-rule:evenodd;fill:#ffffff;fill-opacity:1"
       d="M 107.8125 57.921875 L 107.96875 58.078125 L 108.003906 58.191406 L 108.082031 58.269531 L 108.121094 58.347656 L 108.160156 58.460938 L 108.199219 58.539062 L 108.199219 59.15625 L 108.160156 59.234375 L 108.121094 59.347656 L 108.082031 59.425781 L 108.003906 59.503906 L 107.96875 59.582031 L 107.8125 59.773438 L 107.660156 59.925781 L 107.464844 60.082031 L 107.234375 60.199219 L 107.003906 60.351562 L 106.734375 60.46875 L 106.464844 60.542969 L 106.195312 60.621094 L 105.886719 60.699219 L 105.578125 60.738281 L 105.230469 60.777344 L 64.949219 60.777344 L 64.640625 60.738281 L 64.296875 60.699219 L 64.027344 60.621094 L 63.71875 60.542969 L 63.445312 60.46875 L 63.214844 60.351562 L 62.945312 60.199219 L 62.753906 60.082031 L 62.5625 59.925781 L 62.40625 59.773438 L 62.253906 59.582031 L 62.175781 59.503906 L 62.097656 59.347656 L 62.058594 59.234375 L 62.019531 59.15625 L 61.984375 59.042969 L 61.984375 58.65625 L 62.019531 58.539062 L 62.058594 58.460938 L 62.097656 58.347656 L 62.175781 58.191406 L 62.253906 58.078125 L 62.40625 57.921875 L 62.5625 57.769531 L 62.753906 57.613281 L 62.945312 57.460938 L 63.214844 57.34375 L 63.445312 57.230469 L 63.71875 57.152344 L 64.027344 57.074219 L 64.296875 57 L 64.640625 56.921875 L 64.949219 56.921875 L 65.296875 56.882812 L 104.882812 56.882812 L 105.230469 56.921875 L 105.578125 56.921875 L 105.886719 57 L 106.195312 57.074219 L 106.734375 57.230469 L 107.003906 57.34375 L 107.234375 57.460938 L 107.464844 57.613281 L 107.660156 57.769531 Z M 107.8125 57.921875 "
       id="path6" />
    <path
       style="stroke:none;fill-rule:evenodd;fill:#ffffff;fill-opacity:1"
       d="M 65.066406 55.148438 L 103.882812 55.148438 C 99.5625 44.585938 120.648438 33.871094 110.394531 27.085938 C 111.050781 32.558594 107.699219 35.335938 103.957031 38.226562 L 103.457031 38.574219 C 108.390625 30.132812 108.582031 20.535156 99.179688 15.371094 C 101.453125 18.261719 102.417969 22.308594 100.71875 26.125 C 97.289062 32.136719 89.3125 35.757812 83.953125 39.613281 C 83.414062 31.210938 80.367188 25.003906 71.695312 22.191406 C 75.011719 26.085938 75.320312 29.246094 72.660156 33.910156 C 68.804688 40.039062 61.289062 45.164062 63.445312 54.070312 C 63.753906 54.683594 64.0625 55.148438 65.066406 55.148438 Z M 65.066406 55.148438 "
       id="path8" />
    <path
       style="stroke:none;fill-rule:evenodd;fill:#ffffff;fill-opacity:1"
       d="M 54.890625 160.375 C 52.078125 164.230469 49.878906 165.964844 47.683594 173.984375 C 45.371094 184.929688 49.878906 189.402344 59.167969 182.347656 C 63.214844 178.109375 65.027344 176.679688 68.84375 167.894531 C 72.851562 169.320312 74.238281 170.011719 78.828125 169.972656 C 78.402344 174.753906 78.402344 178.03125 78.941406 182.773438 C 82.296875 197.6875 91.199219 199 94.898438 183.621094 C 95.941406 179.496094 95.785156 174.675781 95.441406 170.050781 C 98.601562 170.050781 101.335938 169.511719 104.265625 168.277344 C 106.964844 175.71875 108.277344 176.335938 113.132812 181.5 C 123.347656 189.441406 127.546875 183.503906 125.660156 173.171875 C 124.117188 167.507812 123.078125 166.429688 117.488281 159.835938 C 120.6875 157.484375 123.308594 154.980469 125.929688 151.972656 C 131.980469 156.289062 134.253906 156.984375 139.652344 158.566406 C 149.710938 160.761719 154.722656 155.867188 148.09375 147.886719 C 142.542969 142.335938 140.730469 140.949219 133.636719 137.867188 C 134.332031 135.050781 134.757812 131.273438 134.5625 127.691406 C 141.964844 127.921875 145.664062 128.191406 152.0625 126.726562 C 159.964844 124.222656 164.203125 116.472656 152.023438 112.925781 C 145.316406 111.847656 142.425781 111.847656 134.792969 112.425781 C 134.292969 108.457031 133.636719 105.796875 132.597656 102.132812 C 137.722656 99.511719 141.386719 97.816406 145.894531 93.078125 C 152.640625 86.175781 148.863281 77.464844 137.261719 81.28125 C 130.207031 84.25 131.015625 83.902344 123.578125 88.566406 C 121.765625 86.714844 119.800781 85.019531 117.71875 83.863281 C 119.492188 78.816406 123.308594 72.957031 124.65625 66.980469 C 126.46875 59.3125 122.113281 51.679688 112.667969 60.582031 C 103.957031 68.601562 101.53125 78.929688 99.21875 86.445312 C 113.863281 91.84375 123.769531 107.070312 123 123.644531 C 121.457031 143.339844 104.421875 158.21875 85.070312 158.488281 C 64.488281 158.027344 49.6875 140.757812 48.222656 122.140625 C 47.875 106.914062 57.78125 92.882812 71.503906 86.640625 C 67.226562 73.457031 64.796875 68.714844 59.015625 62.316406 C 47.566406 51.832031 43.941406 61.855469 45.792969 69.910156 C 46.835938 74.265625 47.875 76.808594 52.886719 83.671875 C 49.6875 86.136719 49.070312 87.488281 46.449219 90.570312 C 41.207031 87.101562 37.777344 84.828125 32.84375 83.207031 C 25.980469 81.628906 17 83.710938 22.511719 92.960938 C 24.363281 96.277344 30.296875 101.285156 38.238281 104.640625 C 37.816406 107.453125 37.390625 110.035156 37.507812 114.007812 C 31.492188 114.121094 29.875 113.851562 22.898438 114.355469 C 15.035156 114.738281 6.707031 122.640625 17.308594 128.460938 C 25.75 131.660156 29.914062 131.121094 37.542969 130.929688 C 37.621094 134.359375 38.277344 136.785156 39.433594 140.0625 C 34.230469 142.492188 32.03125 142.644531 26.90625 147.734375 C 18.117188 158.257812 24.015625 164.769531 36.621094 160.375 C 40.398438 158.757812 43.636719 156.792969 47.722656 153.515625 C 50.1875 156.597656 51.730469 157.910156 54.890625 160.375 Z M 54.890625 160.375 "
       id="path10" />
    <path
       style="stroke:none;fill-rule:evenodd;fill:#ffffff;fill-opacity:1"
       d="M 569.328125 112.757812 L 569.472656 112.542969 L 569.542969 112.324219 L 569.542969 111.605469 L 569.472656 111.316406 L 569.398438 111.03125 L 569.183594 110.453125 L 568.894531 109.878906 L 568.753906 109.660156 L 568.535156 109.300781 L 568.246094 108.871094 L 567.816406 108.367188 L 567.382812 107.789062 L 566.878906 107.214844 L 566.375 106.78125 L 565.871094 106.351562 L 565.441406 105.988281 L 565.082031 105.703125 L 565.007812 105.558594 L 564.9375 105.484375 L 564.863281 105.414062 L 564.863281 105.34375 L 566.304688 101.957031 L 568.175781 97.710938 L 568.320312 97.496094 L 568.535156 97.277344 L 568.679688 97.0625 L 568.894531 96.847656 L 568.894531 96.773438 L 568.96875 96.703125 L 569.472656 97.207031 L 569.976562 97.636719 L 570.335938 97.925781 L 570.695312 98.285156 L 571.558594 99.078125 L 572.28125 99.871094 L 572.566406 100.15625 L 572.785156 100.519531 L 573 100.804688 L 573.144531 101.09375 L 573.433594 101.597656 L 573.648438 102.03125 L 573.863281 102.605469 L 574.007812 103.109375 L 574.152344 103.6875 L 574.222656 104.261719 L 574.222656 104.839844 L 574.296875 105.414062 L 574.296875 106.132812 L 574.222656 106.855469 L 574.152344 107.5 L 574.078125 108.222656 L 573.9375 108.871094 L 573.792969 109.519531 L 573.574219 110.164062 L 573.359375 110.8125 L 572.855469 112.109375 L 572.28125 113.40625 L 571.703125 114.773438 L 570.910156 116.140625 L 570.625 116.644531 L 570.335938 117.148438 L 569.902344 117.652344 L 569.472656 118.085938 L 569.113281 118.375 L 568.679688 118.734375 L 568.246094 119.019531 L 567.671875 119.382812 L 566.953125 119.742188 L 566.089844 120.101562 L 564.9375 120.535156 L 563.640625 121.109375 L 561.410156 121.902344 L 560.761719 121.902344 L 560.6875 121.828125 L 560.6875 121.757812 L 560.617188 121.613281 L 560.617188 121.324219 L 560.6875 121.179688 L 560.902344 120.964844 L 561.265625 120.535156 L 561.769531 120.03125 L 562.488281 119.382812 L 565.152344 117.078125 L 565.871094 116.5 L 566.519531 115.925781 L 567.238281 115.277344 L 567.886719 114.558594 L 568.246094 114.125 L 568.609375 113.765625 L 568.894531 113.40625 L 569.113281 113.046875 Z M 569.328125 112.757812 "
       id="path12" />
    <path
       style="stroke:none;fill-rule:evenodd;fill:#ffffff;fill-opacity:1"
       d="M 554.855469 99.292969 L 554.855469 99.078125 L 554.710938 98.933594 L 554.570312 98.789062 L 554.28125 99.007812 L 554.207031 99.148438 L 553.992188 99.511719 L 553.847656 99.726562 L 553.703125 100.015625 L 553.558594 100.15625 L 551.542969 105.054688 L 550.824219 107.140625 L 550.824219 109.589844 L 550.753906 110.09375 L 550.753906 112.46875 L 550.679688 113.046875 L 550.609375 113.695312 L 550.535156 114.414062 L 550.464844 115.132812 L 550.394531 115.855469 L 550.25 116.574219 L 550.175781 117.078125 L 550.105469 117.652344 L 549.886719 118.375 L 549.746094 119.164062 L 549.527344 120.03125 L 549.097656 121.757812 L 548.878906 122.621094 L 549.167969 123.054688 L 549.3125 123.054688 L 549.457031 122.980469 L 549.527344 122.910156 L 549.671875 122.910156 L 549.886719 122.691406 L 550.105469 122.40625 L 550.394531 122.046875 L 550.753906 121.542969 L 551.183594 120.894531 L 551.6875 120.101562 L 553.199219 116.863281 L 553.488281 116.140625 L 553.703125 115.421875 L 553.992188 114.773438 L 554.136719 114.125 L 554.28125 113.40625 L 554.351562 112.6875 L 554.425781 111.820312 L 554.496094 110.886719 L 554.710938 105.125 L 554.710938 101.453125 Z M 554.855469 99.292969 "
       id="path14" />
    <path
       style="stroke:none;fill-rule:evenodd;fill:#ffffff;fill-opacity:1"
       d="M 544.992188 67.109375 L 545.351562 67.328125 L 546.214844 68.046875 L 546.863281 68.625 L 547.367188 69.128906 L 547.800781 69.558594 L 548.015625 69.917969 L 548.234375 70.351562 L 548.375 70.855469 L 548.519531 71.359375 L 548.59375 71.789062 L 548.59375 72.222656 L 548.519531 72.65625 L 548.375 73.160156 L 548.234375 73.664062 L 548.015625 74.238281 L 547.800781 74.816406 L 547.441406 75.390625 L 547.152344 76.039062 L 546.722656 76.613281 L 546.214844 77.117188 L 545.710938 77.695312 L 545.351562 77.984375 L 545.066406 78.199219 L 544.777344 78.34375 L 544.417969 78.34375 L 544.199219 78.199219 L 543.839844 77.910156 L 543.410156 77.621094 L 542.976562 77.191406 L 542.542969 76.902344 L 542.183594 76.542969 L 541.824219 76.253906 L 541.464844 76.039062 L 541.105469 75.75 L 540.890625 75.460938 L 540.601562 75.175781 L 540.386719 74.957031 L 540.167969 74.742188 L 540.097656 74.527344 L 540.097656 74.3125 L 540.3125 73.808594 L 540.527344 73.375 L 540.671875 72.941406 L 540.816406 72.582031 L 541.175781 71.789062 L 541.535156 71 L 541.898438 70.351562 L 542.113281 69.847656 L 542.472656 69.199219 L 542.90625 68.625 L 543.265625 67.902344 L 543.695312 67.253906 L 543.914062 66.894531 L 544.199219 66.464844 L 544.417969 66.679688 L 544.632812 66.894531 Z M 544.992188 67.109375 "
       id="path16" />
    <path
       style="stroke:none;fill-rule:evenodd;fill:#ffffff;fill-opacity:1"
       d="M 516.121094 75.605469 L 516.410156 75.03125 L 516.769531 74.453125 L 516.984375 73.878906 L 517.203125 73.304688 L 517.417969 72.800781 L 517.488281 72.296875 L 517.5625 71.863281 L 517.5625 71.429688 L 517.488281 71 L 517.417969 70.496094 L 517.273438 69.992188 L 516.984375 69.558594 L 516.769531 69.128906 L 516.335938 68.695312 L 515.832031 68.261719 L 515.1875 67.613281 L 514.394531 66.96875 L 513.960938 66.679688 L 513.671875 66.535156 L 513.386719 66.320312 L 513.167969 66.101562 L 512.882812 66.535156 L 512.664062 66.824219 L 512.234375 67.542969 L 511.515625 68.839844 L 511.082031 69.488281 L 510.867188 69.992188 L 510.578125 70.640625 L 510.21875 71.359375 L 509.785156 72.222656 L 509.496094 72.941406 L 509.066406 73.949219 L 509.066406 74.167969 L 509.136719 74.382812 L 509.355469 74.597656 L 509.570312 74.816406 L 509.859375 75.101562 L 510.144531 75.390625 L 510.433594 75.605469 L 510.792969 75.894531 L 511.152344 76.253906 L 511.585938 76.542969 L 512.019531 76.902344 L 512.449219 77.261719 L 513.167969 77.839844 L 513.386719 77.910156 L 513.601562 77.984375 L 513.816406 77.984375 L 514.105469 77.839844 L 514.394531 77.621094 L 514.683594 77.335938 L 515.257812 76.757812 L 515.691406 76.183594 Z M 516.121094 75.605469 "
       id="path18" />
    <path
       style="stroke:none;fill-rule:evenodd;fill:#ffffff;fill-opacity:1"
       d="M 520.511719 86.261719 L 520.875 85.6875 L 521.234375 85.039062 L 521.449219 84.460938 L 521.664062 83.957031 L 521.882812 83.382812 L 521.953125 82.949219 L 522.027344 82.519531 L 522.027344 82.015625 L 521.953125 81.582031 L 521.882812 81.078125 L 521.738281 80.648438 L 521.449219 80.144531 L 521.234375 79.78125 L 520.800781 79.351562 L 520.296875 78.847656 L 519.648438 78.269531 L 518.785156 77.550781 L 518.425781 77.335938 L 518.136719 77.117188 L 517.851562 76.902344 L 517.632812 76.6875 L 517.273438 77.117188 L 517.058594 77.480469 L 516.699219 78.125 L 516.335938 78.847656 L 515.90625 79.496094 L 515.546875 80.144531 L 515.328125 80.648438 L 515.042969 81.222656 L 514.683594 82.015625 L 514.25 82.878906 L 514.105469 83.167969 L 513.960938 83.597656 L 513.746094 84.03125 L 513.53125 84.605469 L 513.53125 84.75 L 513.601562 84.964844 L 513.816406 85.183594 L 514.035156 85.46875 L 514.320312 85.6875 L 514.609375 85.972656 L 514.898438 86.261719 L 515.257812 86.476562 L 515.617188 86.765625 L 515.976562 87.125 L 516.410156 87.488281 L 516.839844 87.847656 L 517.273438 88.207031 L 517.632812 88.421875 L 517.851562 88.566406 L 518.066406 88.636719 L 518.28125 88.566406 L 518.570312 88.421875 L 518.859375 88.207031 L 519.144531 87.917969 L 519.648438 87.414062 L 520.152344 86.839844 Z M 520.511719 86.261719 "
       id="path20" />
    <path
       style="stroke:none;fill-rule:evenodd;fill:#ffffff;fill-opacity:1"
       d="M 510.867188 87.917969 L 511.371094 87.34375 L 511.730469 86.765625 L 512.089844 86.191406 L 512.378906 85.542969 L 512.664062 84.964844 L 512.882812 84.460938 L 513.027344 83.957031 L 513.167969 83.453125 L 513.167969 82.949219 L 513.242188 82.519531 L 513.167969 82.085938 L 513.027344 81.582031 L 512.882812 81.152344 L 512.664062 80.71875 L 512.378906 80.285156 L 512.019531 79.855469 L 511.515625 79.351562 L 510.792969 78.773438 L 510 78.054688 L 509.570312 77.839844 L 509.28125 77.621094 L 509.066406 77.480469 L 508.777344 77.191406 L 508.488281 77.695312 L 508.273438 77.984375 L 507.914062 78.703125 L 507.480469 79.351562 L 506.761719 80.648438 L 506.472656 81.152344 L 506.1875 81.726562 L 505.824219 82.519531 L 505.464844 83.382812 L 505.105469 84.101562 L 504.960938 84.535156 L 504.675781 85.109375 L 504.746094 85.253906 L 504.816406 85.46875 L 504.960938 85.6875 L 505.179688 85.972656 L 505.464844 86.191406 L 505.753906 86.476562 L 506.113281 86.695312 L 506.402344 86.984375 L 506.835938 87.269531 L 507.195312 87.628906 L 507.625 87.992188 L 508.058594 88.351562 L 508.488281 88.710938 L 508.777344 88.925781 L 509.066406 89.070312 L 509.210938 89.140625 L 509.355469 89.140625 L 509.425781 89.070312 L 509.570312 89 L 509.714844 88.925781 L 510 88.710938 L 510.363281 88.421875 Z M 510.867188 87.917969 "
       id="path22" />
    <path
       style="stroke:none;fill-rule:evenodd;fill:#ffffff;fill-opacity:1"
       d="M 476.019531 87.558594 L 475.804688 87.992188 L 475.585938 88.421875 L 475.15625 89.429688 L 474.9375 90.007812 L 476.738281 88.207031 L 477.675781 87.34375 L 478.609375 86.40625 L 479.617188 85.328125 L 480.554688 84.246094 L 481.347656 83.238281 L 482.140625 82.375 L 482.785156 81.582031 L 483.363281 80.789062 L 483.867188 80.070312 L 484.226562 79.496094 L 484.441406 79.0625 L 484.585938 78.773438 L 484.730469 78.414062 L 484.804688 78.125 L 485.019531 77.550781 L 485.164062 77.117188 L 485.164062 76.757812 L 485.089844 76.757812 L 484.441406 77.621094 L 483.722656 78.558594 L 482.929688 79.640625 L 481.921875 80.789062 L 480.988281 81.796875 L 479.980469 83.023438 L 478.683594 84.390625 L 477.171875 85.972656 L 476.738281 86.550781 Z M 476.019531 87.558594 "
       id="path24" />
    <path
       style="stroke:none;fill-rule:evenodd;fill:#ffffff;fill-opacity:1"
       d="M 463.851562 109.375 L 463.921875 109.230469 L 463.996094 109.15625 L 464.425781 108.652344 L 465.21875 107.789062 L 466.371094 106.566406 L 467.882812 104.910156 L 468.601562 104.117188 L 469.394531 103.253906 L 470.117188 102.316406 L 470.980469 101.382812 L 471.769531 100.375 L 472.636719 99.367188 L 473.5 98.359375 L 474.433594 97.277344 L 475.945312 95.40625 L 477.386719 93.679688 L 478.828125 91.949219 L 480.121094 90.292969 L 481.347656 88.710938 L 482.570312 87.199219 L 483.652344 85.757812 L 484.660156 84.390625 L 485.667969 83.09375 L 486.601562 81.796875 L 487.464844 80.574219 L 488.257812 79.421875 L 488.980469 78.269531 L 489.699219 77.191406 L 490.417969 76.183594 L 490.996094 75.175781 L 491.210938 74.671875 L 491.425781 74.382812 L 491.5 74.238281 L 491.570312 74.167969 L 491.640625 74.023438 L 491.714844 74.023438 L 491.785156 74.167969 L 491.859375 74.3125 L 491.929688 74.453125 L 491.929688 74.597656 L 491.859375 75.101562 L 491.785156 75.679688 L 491.640625 76.109375 L 491.570312 76.613281 L 491.425781 77.550781 L 491.136719 78.414062 L 490.777344 79.277344 L 490.417969 80.214844 L 489.988281 81.078125 L 489.625 82.015625 L 489.121094 82.949219 L 488.546875 83.886719 L 487.96875 84.964844 L 487.179688 86.191406 L 486.171875 87.628906 L 485.019531 89.214844 L 484.296875 90.152344 L 483.578125 91.085938 L 482.785156 92.09375 L 481.996094 93.101562 L 481.203125 94.183594 L 480.339844 95.191406 L 479.476562 96.269531 L 478.539062 97.351562 L 468.890625 108.941406 L 472.417969 108.941406 L 473.140625 109.015625 L 473.859375 109.015625 L 474.507812 109.085938 L 475.226562 109.15625 L 476.019531 109.230469 L 476.882812 109.375 L 477.820312 109.445312 L 478.753906 109.589844 L 479.761719 109.734375 L 480.84375 109.878906 L 481.996094 110.023438 L 483.722656 110.238281 L 485.308594 110.453125 L 486.820312 110.597656 L 488.257812 110.742188 L 489.554688 110.886719 L 490.777344 110.957031 L 491.785156 111.03125 L 492.792969 111.101562 L 493.660156 111.171875 L 494.523438 111.246094 L 498.410156 111.246094 L 499.128906 111.171875 L 503.667969 111.101562 L 505.898438 110.957031 L 510.21875 110.527344 L 512.304688 110.238281 L 514.320312 109.949219 L 516.335938 109.589844 L 518.28125 109.15625 L 520.152344 108.726562 L 521.234375 108.4375 L 522.386719 108.148438 L 523.464844 107.789062 L 524.617188 107.429688 L 525.699219 107.070312 L 526.847656 106.636719 L 528 106.207031 L 529.152344 105.773438 L 530.304688 105.269531 L 531.457031 104.839844 L 532.679688 104.332031 L 533.832031 103.757812 L 536.210938 102.605469 L 538.65625 101.382812 L 539.738281 100.804688 L 540.816406 100.230469 L 541.898438 99.582031 L 542.976562 98.933594 L 544.058594 98.285156 L 545.066406 97.636719 L 546.144531 96.917969 L 547.152344 96.199219 L 548.160156 95.476562 L 549.242188 94.6875 L 550.25 93.894531 L 551.328125 93.101562 L 552.410156 92.167969 L 553.488281 91.230469 L 554.640625 90.367188 L 555.71875 89.359375 L 556.585938 88.566406 L 557.375 87.773438 L 558.023438 87.054688 L 558.671875 86.40625 L 559.175781 85.832031 L 559.609375 85.253906 L 559.96875 84.824219 L 560.257812 84.390625 L 560.328125 84.175781 L 560.398438 84.03125 L 560.472656 83.742188 L 560.542969 83.453125 L 560.617188 82.878906 L 560.6875 82.160156 L 560.6875 81.511719 L 560.761719 80.863281 L 560.832031 80.648438 L 560.902344 80.429688 L 560.976562 80.214844 L 561.046875 80.070312 L 561.625 78.847656 L 562.273438 77.695312 L 562.847656 76.472656 L 563.425781 75.246094 L 563.785156 74.671875 L 564.214844 73.878906 L 564.71875 73.085938 L 565.296875 72.078125 L 565.441406 72.007812 L 565.585938 71.933594 L 565.585938 72.222656 L 565.511719 72.871094 L 565.441406 73.808594 L 565.296875 75.101562 L 565.222656 75.75 L 565.152344 76.472656 L 565.007812 77.191406 L 564.9375 77.839844 L 564.792969 78.558594 L 564.648438 79.207031 L 564.503906 79.925781 L 564.359375 80.574219 L 563.929688 82.300781 L 563.710938 83.09375 L 563.496094 83.816406 L 563.207031 84.460938 L 562.992188 85.109375 L 562.703125 85.6875 L 562.488281 86.261719 L 561.984375 86.984375 L 561.550781 87.773438 L 561.046875 88.566406 L 560.542969 89.285156 L 559.96875 90.078125 L 559.390625 90.871094 L 558.746094 91.589844 L 558.167969 92.382812 L 557.449219 93.175781 L 556.800781 93.964844 L 556.007812 94.757812 L 555.289062 95.550781 L 554.496094 96.269531 L 553.703125 97.0625 L 552.839844 97.855469 L 551.976562 98.644531 L 550.175781 100.230469 L 548.375 101.742188 L 544.632812 104.476562 L 542.6875 105.847656 L 540.671875 107.070312 L 538.730469 108.292969 L 536.714844 109.375 L 534.480469 110.527344 L 532.320312 111.675781 L 530.089844 112.6875 L 527.855469 113.550781 L 525.625 114.484375 L 523.320312 115.277344 L 521.089844 116.070312 L 516.480469 117.367188 L 511.730469 118.375 L 509.425781 118.804688 L 506.976562 119.164062 L 504.601562 119.453125 L 502.152344 119.667969 L 499.707031 119.8125 L 499.707031 119.886719 L 497.761719 119.957031 L 496.035156 120.03125 L 492.867188 120.03125 L 491.5 119.957031 L 490.203125 119.8125 L 489.050781 119.742188 L 487.96875 119.527344 L 487.394531 119.382812 L 486.746094 119.238281 L 486.171875 119.09375 L 485.523438 118.878906 L 484.945312 118.660156 L 484.371094 118.375 L 483.792969 118.15625 L 483.148438 117.871094 L 482.570312 117.582031 L 481.996094 117.292969 L 481.417969 116.933594 L 480.84375 116.574219 L 480.265625 116.214844 L 479.691406 115.78125 L 479.113281 115.421875 L 478.609375 114.917969 L 478.46875 114.988281 L 478.394531 115.132812 L 478.25 115.421875 L 478.105469 115.78125 L 477.820312 116.789062 L 477.386719 118.15625 L 477.171875 119.09375 L 476.882812 120.03125 L 476.59375 121.039062 L 476.234375 122.046875 L 475.945312 122.910156 L 475.515625 123.703125 L 475.15625 124.492188 L 474.722656 125.285156 L 474.292969 126.003906 L 473.789062 126.652344 L 473.28125 127.300781 L 472.777344 127.878906 L 472.132812 128.597656 L 471.484375 129.171875 L 471.125 129.460938 L 470.835938 129.675781 L 470.476562 129.894531 L 470.117188 130.109375 L 469.828125 130.253906 L 469.46875 130.46875 L 469.105469 130.613281 L 468.746094 130.683594 L 468.460938 130.757812 L 468.097656 130.828125 L 467.738281 130.902344 L 467.378906 130.972656 L 467.019531 130.902344 L 466.371094 130.902344 L 466.011719 130.828125 L 465.722656 130.757812 L 465.433594 130.683594 L 465.074219 130.613281 L 464.859375 130.398438 L 464.570312 130.253906 L 464.285156 130.109375 L 463.996094 129.894531 L 463.78125 129.675781 L 463.203125 129.246094 L 462.988281 128.957031 L 462.773438 128.597656 L 462.554688 128.308594 L 462.339844 128.019531 L 462.125 127.660156 L 461.980469 127.300781 L 461.621094 126.507812 L 461.332031 125.71875 L 461.117188 124.851562 L 460.898438 123.84375 L 460.828125 122.910156 L 460.683594 121.828125 L 460.683594 120.535156 L 460.613281 120.246094 L 460.683594 119.957031 L 460.613281 118.878906 L 460.613281 115.710938 L 460.683594 114.988281 L 460.683594 114.269531 L 460.753906 113.476562 L 460.753906 112.613281 L 460.828125 111.675781 L 460.828125 110.742188 L 460.898438 109.734375 L 460.972656 108.652344 L 461.257812 102.101562 L 461.980469 93.75 L 465.003906 84.824219 L 465.148438 84.679688 L 465.292969 84.605469 L 465.363281 84.679688 L 465.363281 87.847656 L 465.292969 88.78125 L 465.21875 89.933594 L 465.148438 91.160156 L 465.003906 92.527344 L 464.929688 93.316406 L 464.929688 94.183594 L 464.859375 95.117188 L 464.789062 96.125 L 464.714844 97.277344 L 464.644531 98.429688 L 464.5 99.726562 L 464.425781 101.09375 L 464.285156 102.390625 L 464.210938 103.542969 L 464.140625 104.550781 L 464.066406 105.34375 L 463.996094 105.988281 L 463.921875 106.492188 L 463.921875 107.574219 L 463.851562 108.148438 Z M 474.9375 116.214844 L 474.9375 115.996094 L 474.867188 115.855469 L 474.867188 115.636719 L 474.796875 115.492188 L 474.722656 115.347656 L 474.578125 115.132812 L 474.433594 114.988281 L 474.292969 114.917969 L 473.929688 114.628906 L 473.5 114.339844 L 472.996094 114.125 L 472.417969 113.980469 L 471.84375 113.835938 L 471.195312 113.695312 L 470.691406 113.621094 L 470.117188 113.550781 L 469.609375 113.40625 L 468.097656 113.40625 L 467.667969 113.476562 L 467.308594 113.550781 L 466.949219 113.550781 L 466.660156 113.695312 L 466.371094 113.835938 L 466.082031 113.980469 L 465.796875 114.125 L 465.652344 114.339844 L 465.433594 114.558594 L 465.21875 114.84375 L 465.148438 115.0625 L 465.003906 115.347656 L 465.003906 115.636719 L 464.929688 115.996094 L 464.929688 117.292969 L 465.003906 117.796875 L 465.074219 118.230469 L 465.21875 118.660156 L 465.292969 119.019531 L 465.433594 119.382812 L 465.578125 119.667969 L 465.796875 119.957031 L 466.082031 120.246094 L 466.445312 120.535156 L 466.875 120.820312 L 467.308594 121.039062 L 467.738281 121.109375 L 468.316406 121.253906 L 469.539062 121.253906 L 470.257812 121.179688 L 470.980469 121.039062 L 471.628906 120.894531 L 472.132812 120.675781 L 472.707031 120.460938 L 473.140625 120.101562 L 473.355469 119.957031 L 473.570312 119.742188 L 473.714844 119.527344 L 473.929688 119.308594 L 474.21875 119.019531 L 474.433594 118.589844 L 474.578125 118.230469 L 474.796875 117.871094 L 474.867188 117.507812 L 474.9375 117.078125 L 475.011719 116.644531 Z M 474.9375 116.214844 "
       id="path26" />
    <path
       style="stroke:none;fill-rule:evenodd;fill:#ffffff;fill-opacity:1"
       d="M 449.597656 115.636719 L 449.523438 116.574219 L 449.378906 117.507812 L 449.234375 118.589844 L 448.949219 119.667969 L 448.660156 120.75 L 448.300781 121.757812 L 447.867188 122.765625 L 447.4375 123.703125 L 447.074219 124.421875 L 446.644531 125.070312 L 446.285156 125.71875 L 445.851562 126.292969 L 445.492188 126.796875 L 445.058594 127.300781 L 444.699219 127.660156 L 444.269531 128.09375 L 443.90625 128.453125 L 443.476562 128.742188 L 443.042969 129.027344 L 442.613281 129.246094 L 442.179688 129.390625 L 441.675781 129.53125 L 441.246094 129.605469 L 440.378906 129.605469 L 440.019531 129.53125 L 439.730469 129.460938 L 439.371094 129.390625 L 439.15625 129.246094 L 438.867188 129.101562 L 438.652344 128.886719 L 438.4375 128.667969 L 438.21875 128.382812 L 438.078125 128.09375 L 437.933594 127.804688 L 437.859375 127.515625 L 437.789062 127.15625 L 437.714844 126.726562 L 437.644531 126.292969 L 437.644531 125.859375 L 437.714844 125.214844 L 437.789062 124.492188 L 437.933594 123.84375 L 438.078125 123.125 L 439.445312 120.171875 L 440.742188 117.941406 L 440.378906 117.796875 L 440.09375 117.726562 L 439.875 117.726562 L 439.875 117.4375 L 440.019531 117.078125 L 440.164062 116.574219 L 440.453125 115.925781 L 440.8125 114.917969 L 441.246094 113.980469 L 441.605469 113.261719 L 441.890625 112.6875 L 443.402344 109.15625 L 443.546875 108.941406 L 443.621094 108.726562 L 443.765625 108.511719 L 443.835938 108.367188 L 443.980469 108.292969 L 444.125 108.148438 L 444.554688 108.148438 L 444.84375 108.222656 L 445.203125 108.4375 L 445.636719 108.652344 L 446.066406 108.871094 L 446.429688 109.15625 L 446.789062 109.375 L 447.074219 109.589844 L 447.722656 110.164062 L 448.226562 110.8125 L 448.445312 111.101562 L 448.660156 111.390625 L 448.875 111.75 L 449.019531 112.039062 L 449.164062 112.324219 L 449.234375 112.6875 L 449.378906 113.117188 L 449.453125 113.476562 L 449.453125 113.980469 L 449.523438 114.484375 L 449.523438 115.0625 Z M 445.5625 122.261719 L 445.492188 121.972656 L 445.492188 121.683594 L 445.421875 121.398438 L 445.347656 121.109375 L 445.203125 120.894531 L 445.058594 120.675781 L 444.699219 120.316406 L 444.414062 120.101562 L 444.125 119.8125 L 443.835938 119.597656 L 443.476562 119.382812 L 443.117188 119.164062 L 442.757812 119.019531 L 442.179688 118.878906 L 442.109375 118.949219 L 441.964844 119.019531 L 441.890625 119.09375 L 441.675781 119.238281 L 441.316406 119.742188 L 440.882812 120.316406 L 440.667969 120.675781 L 440.523438 120.964844 L 440.378906 121.324219 L 440.234375 121.613281 L 440.09375 121.902344 L 440.019531 122.1875 L 440.019531 123.199219 L 440.09375 123.414062 L 440.164062 123.628906 L 440.234375 123.773438 L 440.308594 123.917969 L 440.667969 124.277344 L 440.8125 124.347656 L 441.027344 124.421875 L 441.246094 124.492188 L 441.675781 124.566406 L 442.179688 124.636719 L 442.46875 124.636719 L 442.757812 124.566406 L 442.972656 124.492188 L 443.261719 124.421875 L 443.546875 124.347656 L 443.835938 124.207031 L 444.125 124.0625 L 444.339844 123.917969 L 444.628906 123.773438 L 444.917969 123.558594 L 445.058594 123.339844 L 445.277344 123.125 L 445.347656 122.910156 L 445.492188 122.691406 L 445.492188 122.476562 Z M 445.5625 122.261719 "
       id="path28" />
    <path
       style="stroke:none;fill-rule:evenodd;fill:#ffffff;fill-opacity:1"
       d="M 426.484375 88.710938 L 426.484375 89.644531 L 426.558594 90.292969 L 426.558594 90.941406 L 426.628906 91.445312 L 426.773438 92.023438 L 426.84375 92.527344 L 426.988281 92.957031 L 427.132812 93.390625 L 427.203125 93.605469 L 427.421875 93.894531 L 427.566406 94.109375 L 427.707031 94.328125 L 427.925781 94.46875 L 428.140625 94.6875 L 428.355469 94.757812 L 428.933594 95.046875 L 429.21875 95.117188 L 429.4375 95.191406 L 429.796875 95.261719 L 430.875 95.261719 L 431.164062 94.542969 L 431.378906 93.824219 L 431.597656 93.101562 L 431.8125 92.382812 L 431.957031 92.167969 L 432.171875 91.519531 L 432.53125 90.582031 L 433.035156 89.214844 L 433.253906 88.710938 L 433.539062 88.277344 L 433.757812 87.773438 L 433.972656 87.34375 L 434.261719 86.910156 L 434.476562 86.476562 L 434.765625 86.117188 L 435.050781 85.757812 L 435.414062 85.253906 L 435.84375 84.894531 L 436.347656 84.535156 L 436.78125 84.246094 L 437.285156 84.03125 L 437.714844 83.886719 L 438.21875 83.742188 L 439.15625 83.742188 L 439.589844 83.816406 L 439.949219 83.957031 L 440.308594 84.101562 L 440.453125 84.246094 L 440.597656 84.320312 L 440.742188 84.460938 L 440.882812 84.605469 L 440.957031 84.75 L 441.027344 84.964844 L 441.101562 85.109375 L 441.171875 85.328125 L 441.171875 85.902344 L 441.101562 86.117188 L 441.027344 86.261719 L 440.957031 86.40625 L 440.882812 86.550781 L 440.742188 86.695312 L 440.523438 86.910156 L 440.378906 87.125 L 440.164062 87.199219 L 439.730469 87.199219 L 439.15625 86.984375 L 438.796875 86.839844 L 438.363281 86.765625 L 438.003906 86.765625 L 437.714844 86.695312 L 437.285156 86.765625 L 436.996094 86.839844 L 436.636719 86.910156 L 436.277344 87.125 L 435.917969 87.34375 L 435.628906 87.558594 L 435.050781 88.277344 L 434.765625 88.636719 L 434.476562 89 L 434.332031 89.285156 L 434.117188 89.644531 L 434.042969 89.933594 L 433.902344 90.292969 L 433.902344 90.582031 L 433.828125 90.871094 L 433.828125 91.085938 L 433.902344 91.300781 L 433.972656 91.519531 L 434.042969 91.734375 L 434.1875 92.023438 L 434.261719 92.238281 L 434.476562 92.453125 L 434.621094 92.671875 L 435.050781 93.101562 L 435.269531 93.246094 L 435.554688 93.390625 L 435.773438 93.460938 L 436.058594 93.535156 L 436.347656 93.605469 L 437.070312 93.605469 L 437.285156 93.535156 L 437.5 93.460938 L 437.714844 93.316406 L 437.933594 93.246094 L 438.148438 93.101562 L 439.15625 92.09375 L 439.589844 91.519531 L 440.019531 90.871094 L 440.234375 90.511719 L 440.453125 90.007812 L 440.742188 89.503906 L 441.101562 88.925781 L 441.246094 88.566406 L 441.386719 88.277344 L 441.53125 88.132812 L 441.675781 87.917969 L 441.820312 87.773438 L 441.964844 87.703125 L 442.179688 87.703125 L 442.253906 87.773438 L 442.324219 87.847656 L 442.394531 87.992188 L 442.394531 88.207031 L 442.324219 88.351562 L 442.324219 88.566406 L 442.253906 88.855469 L 442.179688 89.140625 L 441.890625 89.863281 L 441.605469 90.65625 L 441.246094 91.519531 L 440.8125 92.597656 L 440.453125 93.316406 L 440.164062 93.964844 L 439.804688 94.6875 L 439.445312 95.40625 L 439.085938 96.054688 L 438.722656 96.703125 L 438.292969 97.277344 L 437.933594 97.925781 L 437.429688 98.644531 L 436.925781 99.292969 L 436.492188 99.871094 L 435.988281 100.445312 L 435.484375 100.949219 L 434.910156 101.382812 L 434.40625 101.886719 L 433.398438 102.605469 L 432.820312 102.820312 L 432.246094 103.109375 L 431.667969 103.324219 L 431.09375 103.46875 L 430.589844 103.542969 L 430.011719 103.613281 L 429.363281 103.6875 L 429.003906 103.613281 L 428.574219 103.613281 L 428.210938 103.542969 L 427.851562 103.542969 L 427.566406 103.398438 L 427.203125 103.253906 L 426.917969 103.109375 L 426.558594 102.964844 L 426.339844 102.75 L 426.054688 102.605469 L 425.765625 102.390625 L 425.546875 102.101562 L 425.261719 101.886719 L 425.042969 101.527344 L 424.613281 100.949219 L 424.539062 100.660156 L 424.398438 100.445312 L 421.515625 105.703125 L 422.019531 105.917969 L 422.382812 106.0625 L 422.667969 106.207031 L 422.886719 106.351562 L 423.171875 106.492188 L 423.53125 106.78125 L 424.109375 107.070312 L 424.757812 107.5 L 425.117188 107.71875 L 425.476562 108.003906 L 425.691406 108.292969 L 425.910156 108.511719 L 426.125 108.871094 L 426.195312 109.15625 L 426.269531 109.519531 L 426.339844 109.878906 L 426.269531 110.09375 L 426.269531 110.308594 L 426.195312 110.527344 L 426.125 110.8125 L 425.621094 111.820312 L 425.1875 112.828125 L 424.902344 113.261719 L 424.683594 113.765625 L 424.398438 114.125 L 424.179688 114.558594 L 423.964844 114.917969 L 423.675781 115.277344 L 423.390625 115.566406 L 423.101562 115.855469 L 422.8125 116.140625 L 422.523438 116.429688 L 422.238281 116.644531 L 421.949219 116.863281 L 421.660156 117.003906 L 421.300781 117.222656 L 420.796875 117.367188 L 420.222656 117.582031 L 419.574219 117.796875 L 418.78125 118.011719 L 417.917969 118.300781 L 416.980469 118.515625 L 415.902344 118.804688 L 414.964844 119.164062 L 414.027344 119.597656 L 413.164062 119.957031 L 412.375 120.460938 L 411.582031 120.964844 L 410.71875 121.46875 L 409.925781 122.117188 L 409.207031 122.765625 L 408.558594 123.339844 L 407.980469 123.917969 L 407.476562 124.492188 L 407.046875 125.140625 L 406.613281 125.71875 L 406.324219 126.222656 L 406.109375 126.796875 L 405.820312 127.515625 L 405.605469 128.238281 L 405.390625 128.957031 L 405.171875 129.75 L 404.957031 130.613281 L 404.742188 131.40625 L 404.527344 132.269531 L 404.382812 133.203125 L 404.308594 133.636719 L 404.164062 134.429688 L 403.949219 135.507812 L 403.804688 136.949219 L 403.734375 137.378906 L 403.660156 137.957031 L 403.589844 138.820312 L 403.515625 139.902344 L 403.375 141.195312 L 403.230469 142.707031 L 403.085938 144.4375 L 402.941406 146.378906 L 402.726562 148.324219 L 402.582031 150.125 L 402.4375 151.636719 L 402.367188 153.003906 L 402.292969 154.15625 L 402.222656 155.019531 L 402.222656 155.738281 L 402.148438 156.246094 L 401.71875 167.691406 L 401.71875 168.339844 L 401.644531 169.058594 L 401.644531 169.78125 L 401.574219 170.570312 L 401.574219 171.4375 L 401.5 172.300781 L 401.429688 173.164062 L 401.359375 174.097656 L 401.214844 175.828125 L 400.996094 176.980469 L 400.925781 177.410156 L 400.855469 177.699219 L 400.78125 177.84375 L 400.78125 177.914062 L 400.710938 177.988281 L 400.636719 177.988281 L 400.636719 177.195312 L 400.566406 176.402344 L 400.492188 175.828125 L 400.421875 175.179688 L 400.421875 174.316406 L 400.351562 173.453125 L 400.277344 172.730469 L 400.207031 171.941406 L 400.207031 170.285156 L 400.132812 169.851562 L 400.132812 160.707031 L 400.207031 159.84375 L 400.207031 153.003906 L 400.277344 151.277344 L 400.351562 149.546875 L 400.421875 147.820312 L 400.566406 146.09375 L 400.710938 144.363281 L 400.855469 142.636719 L 401.070312 140.910156 L 401.285156 139.179688 L 401.574219 137.523438 L 401.863281 135.941406 L 402.148438 134.429688 L 402.4375 132.988281 L 402.726562 131.621094 L 403.085938 130.324219 L 403.445312 129.101562 L 403.660156 128.238281 L 403.949219 127.375 L 404.238281 126.507812 L 404.597656 125.644531 L 404.886719 124.851562 L 405.316406 124.0625 L 405.675781 123.339844 L 406.109375 122.550781 L 406.46875 121.828125 L 406.902344 121.109375 L 407.40625 120.460938 L 407.835938 119.742188 L 408.339844 119.09375 L 408.773438 118.515625 L 409.421875 117.871094 L 409.996094 117.148438 L 410.644531 116.5 L 411.222656 115.925781 L 411.796875 115.421875 L 412.300781 114.988281 L 415.398438 112.6875 L 419.789062 105.125 L 419.859375 105.125 L 422.523438 100.300781 L 422.667969 99.871094 L 422.886719 99.367188 L 423.027344 98.789062 L 423.171875 98.285156 L 423.246094 97.710938 L 423.316406 97.132812 L 423.390625 96.414062 L 423.460938 95.765625 L 423.460938 95.046875 L 423.605469 91.878906 L 423.605469 91.445312 L 423.675781 90.65625 L 423.75 89.503906 L 423.964844 88.132812 L 424.109375 86.621094 L 424.253906 85.46875 L 424.398438 84.460938 L 424.539062 83.742188 L 424.683594 83.09375 L 424.902344 82.375 L 425.117188 81.65625 L 425.40625 80.789062 L 425.691406 79.855469 L 426.125 78.847656 L 426.628906 77.765625 L 427.132812 76.472656 L 427.277344 76.328125 L 427.347656 76.253906 L 427.421875 76.183594 L 427.566406 76.183594 L 427.636719 76.253906 L 427.636719 77.261719 L 427.566406 78.199219 L 427.421875 79.421875 L 427.203125 80.933594 L 426.988281 82.445312 L 426.773438 83.671875 L 426.699219 84.535156 L 426.628906 85.183594 Z M 426.484375 88.710938 "
       id="path30" />
    <path
       style="stroke:none;fill-rule:evenodd;fill:#ffffff;fill-opacity:1"
       d="M 247.648438 81.871094 L 247.574219 81.726562 L 247.503906 81.511719 L 247.359375 81.367188 L 247.144531 81.65625 L 247 81.871094 L 246.785156 82.230469 L 246.640625 82.519531 L 246.496094 82.804688 L 246.425781 83.023438 L 244.480469 88.566406 L 243.832031 90.941406 L 243.832031 91.445312 L 243.761719 91.949219 L 243.761719 94.328125 L 243.6875 94.972656 L 243.6875 96.917969 L 243.617188 97.636719 L 243.542969 98.429688 L 243.472656 99.222656 L 243.398438 100.015625 L 243.328125 100.804688 L 243.183594 101.671875 L 243.113281 102.246094 L 243.039062 102.894531 L 242.894531 103.6875 L 242.753906 104.621094 L 242.535156 105.558594 L 242.320312 106.566406 L 242.105469 107.5 L 241.886719 108.511719 L 242.175781 109.015625 L 242.390625 109.015625 L 242.464844 108.941406 L 242.609375 108.871094 L 242.824219 108.652344 L 243.039062 108.367188 L 243.328125 107.933594 L 243.6875 107.359375 L 244.046875 106.566406 L 244.480469 105.703125 L 245.992188 101.957031 L 246.28125 101.167969 L 246.710938 99.582031 L 246.855469 98.863281 L 247 98.070312 L 247.070312 97.207031 L 247.214844 96.269531 L 247.214844 95.191406 L 247.433594 88.566406 L 247.503906 84.460938 L 247.648438 81.941406 Z M 247.648438 81.871094 "
       id="path32" />
    <path
       style="stroke:none;fill-rule:evenodd;fill:#ffffff;fill-opacity:1"
       d="M 242.535156 126.871094 L 241.960938 127.300781 L 241.167969 127.804688 L 239.945312 128.597656 L 239.082031 129.171875 L 238.503906 129.53125 L 238.214844 129.675781 L 237.570312 130.179688 L 236.992188 130.613281 L 235.984375 131.332031 L 235.335938 131.980469 L 235.265625 132.054688 L 235.191406 132.195312 L 235.121094 132.269531 L 235.121094 132.414062 L 235.265625 132.484375 L 235.410156 132.628906 L 235.480469 132.773438 L 235.695312 132.773438 L 235.839844 132.84375 L 236.054688 132.84375 L 236.273438 132.917969 L 236.488281 132.84375 L 237.136719 132.84375 L 237.855469 132.773438 L 238.792969 132.628906 L 239.945312 132.414062 L 240.953125 132.195312 L 241.886719 131.980469 L 242.679688 131.765625 L 243.257812 131.550781 L 243.542969 131.40625 L 243.832031 131.261719 L 244.191406 131.046875 L 244.480469 130.828125 L 244.769531 130.683594 L 245.054688 130.46875 L 245.273438 130.253906 L 245.558594 129.964844 L 245.777344 129.675781 L 245.992188 129.460938 L 246.207031 129.171875 L 246.496094 128.886719 L 247.214844 127.589844 L 247.433594 127.15625 L 247.648438 126.652344 L 247.863281 126.078125 L 248.152344 125.5 L 248.367188 124.78125 L 248.726562 124.0625 L 249.015625 123.199219 L 249.375 122.332031 L 249.808594 121.398438 L 250.167969 120.675781 L 250.601562 120.03125 L 250.960938 119.453125 L 251.105469 119.238281 L 251.320312 118.949219 L 251.679688 118.734375 L 251.96875 118.445312 L 252.328125 118.230469 L 252.617188 118.011719 L 252.902344 117.871094 L 253.121094 117.796875 L 256.214844 116.214844 L 256.574219 115.996094 L 256.863281 115.78125 L 257.152344 115.492188 L 257.511719 115.207031 L 257.800781 114.84375 L 258.085938 114.414062 L 258.375 113.980469 L 258.664062 113.476562 L 258.953125 112.902344 L 259.238281 112.324219 L 259.527344 111.675781 L 259.816406 110.957031 L 260.03125 110.238281 L 260.320312 109.445312 L 260.609375 108.582031 L 260.824219 107.71875 L 260.894531 107.359375 L 260.96875 107.070312 L 260.96875 106.492188 L 260.894531 106.351562 L 260.824219 106.277344 L 260.75 106.207031 L 260.609375 106.207031 L 260.535156 106.277344 L 260.246094 106.566406 L 259.960938 107.070312 L 259.527344 107.789062 L 259.023438 108.511719 L 258.664062 109.085938 L 258.304688 109.589844 L 258.015625 109.878906 L 257.65625 110.164062 L 257.152344 110.453125 L 256.574219 110.742188 L 255.929688 111.101562 L 254.992188 111.605469 L 254.273438 111.964844 L 253.769531 112.253906 L 253.480469 112.398438 L 253.046875 112.6875 L 252.6875 112.972656 L 252.257812 113.261719 L 251.96875 113.550781 L 251.609375 113.835938 L 251.03125 114.414062 L 250.816406 114.703125 L 250.601562 115.0625 L 250.3125 115.421875 L 250.023438 115.925781 L 249.734375 116.5 L 249.089844 117.871094 L 248.296875 119.527344 L 247.574219 121.109375 L 247 122.332031 L 246.640625 123.125 L 246.351562 123.558594 L 245.847656 124.132812 L 245.128906 124.851562 L 244.191406 125.644531 L 243.113281 126.507812 L 242.894531 126.652344 Z M 242.535156 126.871094 "
       id="path34" />
    <path
       style="stroke:none;fill-rule:evenodd;fill:#ffffff;fill-opacity:1"
       d="M 303.878906 92.671875 L 304.09375 92.886719 L 304.527344 93.101562 L 305.246094 93.75 L 305.894531 94.328125 L 306.398438 94.757812 L 306.757812 95.191406 L 306.972656 95.550781 L 307.261719 95.980469 L 307.40625 96.414062 L 307.476562 96.847656 L 307.550781 97.277344 L 307.476562 97.710938 L 307.476562 98.140625 L 307.335938 98.574219 L 307.191406 99.078125 L 306.972656 99.582031 L 306.757812 100.085938 L 306.46875 100.660156 L 306.183594 101.238281 L 305.75 101.8125 L 305.316406 102.316406 L 304.8125 102.820312 L 304.527344 103.109375 L 304.238281 103.324219 L 304.09375 103.398438 L 304.023438 103.398438 L 303.878906 103.46875 L 303.804688 103.46875 L 303.589844 103.398438 L 303.375 103.253906 L 303.085938 103.039062 L 302.652344 102.75 L 302.292969 102.390625 L 301.863281 102.101562 L 301.503906 101.742188 L 301.140625 101.527344 L 300.78125 101.238281 L 300.496094 101.023438 L 299.773438 100.300781 L 299.628906 100.015625 L 299.558594 99.871094 L 299.488281 99.652344 L 299.703125 99.222656 L 299.917969 98.71875 L 300.0625 98.359375 L 300.207031 98.070312 L 300.636719 97.207031 L 300.925781 96.558594 L 301.214844 95.980469 L 301.429688 95.476562 L 301.789062 94.902344 L 302.148438 94.253906 L 302.511719 93.605469 L 302.871094 93.03125 L 303.085938 92.742188 L 303.375 92.238281 L 303.589844 92.453125 Z M 303.878906 92.671875 "
       id="path36" />
    <path
       style="stroke:none;fill-rule:evenodd;fill:#ffffff;fill-opacity:1"
       d="M 295.527344 93.175781 L 295.816406 93.316406 L 296.175781 93.535156 L 296.964844 94.183594 L 297.613281 94.757812 L 298.476562 95.621094 L 298.695312 96.054688 L 298.910156 96.414062 L 299.054688 96.917969 L 299.199219 97.351562 L 299.199219 98.644531 L 299.054688 99.078125 L 298.910156 99.582031 L 298.695312 100.085938 L 298.476562 100.589844 L 298.191406 101.167969 L 297.832031 101.742188 L 297.46875 102.316406 L 297.039062 102.820312 L 296.246094 103.613281 L 295.957031 103.757812 L 295.816406 103.902344 L 295.308594 103.902344 L 295.09375 103.757812 L 294.734375 103.542969 L 294.375 103.253906 L 293.941406 102.894531 L 293.582031 102.535156 L 292.863281 101.957031 L 292.503906 101.742188 L 292.214844 101.453125 L 291.925781 101.238281 L 291.710938 100.949219 L 291.496094 100.734375 L 291.351562 100.519531 L 291.207031 100.300781 L 291.207031 100.15625 L 291.421875 99.652344 L 291.636719 99.222656 L 291.78125 98.863281 L 291.925781 98.574219 L 292.285156 97.710938 L 292.648438 96.988281 L 292.933594 96.414062 L 293.152344 95.980469 L 293.511719 95.335938 L 293.871094 94.757812 L 294.589844 93.460938 L 294.804688 93.175781 L 295.09375 92.742188 Z M 295.527344 93.175781 "
       id="path38" />
    <path
       style="stroke:none;fill-rule:evenodd;fill:#ffffff;fill-opacity:1"
       d="M 219.855469 111.675781 L 220.144531 110.957031 L 220.359375 110.597656 L 220.433594 110.238281 L 220.503906 109.878906 L 220.578125 109.519531 L 220.578125 108.652344 L 220.503906 108.292969 L 220.433594 108.078125 L 220.359375 107.863281 L 220.359375 107.644531 L 220.289062 107.429688 L 220.144531 107.214844 L 220.074219 106.996094 L 219.929688 106.855469 L 219.785156 106.636719 L 219.351562 106.207031 L 218.847656 105.773438 L 218.199219 105.199219 L 217.410156 104.550781 L 217.050781 104.332031 L 216.6875 104.117188 L 215.679688 103.6875 L 215.464844 104.117188 L 215.25 104.40625 L 214.890625 104.910156 L 214.527344 105.558594 L 214.167969 106.207031 L 213.738281 106.925781 L 211.867188 111.101562 L 211.867188 111.246094 L 212.007812 111.535156 L 212.082031 111.605469 L 212.296875 111.894531 L 212.585938 112.109375 L 212.945312 112.324219 L 213.378906 112.542969 L 213.738281 112.828125 L 214.097656 113.046875 L 214.242188 113.117188 L 214.671875 113.40625 L 215.25 113.835938 L 216.042969 114.484375 L 216.328125 114.628906 L 216.472656 114.773438 L 216.6875 114.84375 L 216.761719 114.917969 L 216.976562 114.84375 L 217.554688 114.414062 L 217.914062 114.125 L 218.273438 113.695312 L 218.703125 113.191406 L 219.136719 112.613281 L 219.570312 111.964844 Z M 219.855469 111.675781 "
       id="path40" />
    <path
       style="stroke:none;fill-rule:evenodd;fill:#ffffff;fill-opacity:1"
       d="M 206.898438 135.582031 L 206.25 135.507812 L 205.671875 135.4375 L 204.523438 135.148438 L 204.015625 135.003906 L 203.441406 134.859375 L 202.9375 134.574219 L 202.503906 134.355469 L 202 134.140625 L 201.570312 133.851562 L 201.136719 133.492188 L 200.777344 133.203125 L 200.34375 132.773438 L 199.984375 132.414062 L 199.699219 132.054688 L 199.335938 131.621094 L 199.050781 131.1875 L 198.761719 130.683594 L 198.472656 130.253906 L 198.042969 129.246094 L 197.898438 128.742188 L 197.683594 128.238281 L 197.609375 127.660156 L 197.464844 127.15625 L 197.320312 126.582031 L 197.25 126.003906 L 197.179688 125.355469 L 197.179688 122.835938 L 197.25 122.1875 L 197.320312 121.46875 L 197.464844 120.75 L 197.539062 120.101562 L 197.683594 119.382812 L 197.824219 118.660156 L 198.042969 117.941406 L 198.1875 117.222656 L 198.402344 116.574219 L 198.546875 115.925781 L 198.761719 115.347656 L 198.90625 114.773438 L 199.335938 113.765625 L 200.203125 111.75 L 201.570312 109.015625 L 201.929688 108.292969 L 202.363281 107.574219 L 202.722656 106.855469 L 203.152344 106.132812 L 203.585938 105.484375 L 203.945312 104.765625 L 204.378906 104.046875 L 204.664062 103.542969 L 204.882812 103.109375 L 205.097656 102.894531 L 205.167969 102.75 L 205.242188 102.75 L 205.3125 102.679688 L 205.457031 102.679688 L 205.671875 102.75 L 205.671875 102.820312 L 205.746094 102.964844 L 205.671875 103.253906 L 205.671875 103.613281 L 205.601562 103.972656 L 205.53125 104.40625 L 205.457031 104.695312 L 205.386719 105.054688 L 202.578125 110.957031 L 202.074219 112.183594 L 201.714844 113.191406 L 201.355469 114.054688 L 201.136719 114.628906 L 200.992188 115.0625 L 200.921875 115.566406 L 200.777344 115.996094 L 200.707031 116.429688 L 200.632812 116.933594 L 200.632812 117.367188 L 200.5625 117.871094 L 200.5625 118.949219 L 200.632812 119.453125 L 200.632812 120.03125 L 200.777344 120.535156 L 200.921875 121.109375 L 200.992188 121.542969 L 201.210938 122.046875 L 201.425781 122.476562 L 201.640625 122.910156 L 201.859375 123.269531 L 202.144531 123.703125 L 202.433594 124.0625 L 202.792969 124.421875 L 203.152344 124.710938 L 203.511719 124.996094 L 203.945312 125.285156 L 204.234375 125.5 L 204.59375 125.644531 L 204.953125 125.859375 L 205.3125 126.003906 L 206.035156 126.292969 L 206.824219 126.507812 L 207.617188 126.726562 L 208.480469 126.796875 L 209.417969 126.871094 L 210.351562 126.941406 L 211.722656 126.871094 L 212.945312 126.796875 L 213.59375 126.726562 L 214.167969 126.652344 L 214.746094 126.582031 L 215.25 126.507812 L 215.824219 126.363281 L 216.328125 126.222656 L 216.90625 126.003906 L 217.480469 125.789062 L 218.058594 125.574219 L 218.5625 125.355469 L 219.136719 125.070312 L 219.714844 124.78125 L 220.359375 124.421875 L 220.9375 124.0625 L 221.441406 123.703125 L 222.015625 123.269531 L 222.519531 122.910156 L 223.023438 122.476562 L 223.527344 121.972656 L 223.960938 121.542969 L 224.609375 120.75 L 225.328125 119.886719 L 226.121094 118.878906 L 226.984375 117.726562 L 227.417969 116.933594 L 227.847656 116.140625 L 228.207031 115.421875 L 228.496094 114.703125 L 228.570312 114.269531 L 228.710938 113.910156 L 228.785156 113.476562 L 228.855469 113.046875 L 228.929688 112.613281 L 228.929688 112.109375 L 229 111.605469 L 229 111.101562 L 229.144531 105.199219 L 229.144531 104.476562 L 229.214844 103.757812 L 229.648438 101.8125 L 229.9375 101.09375 L 230.226562 100.300781 L 230.585938 99.367188 L 232.242188 96.125 L 232.527344 95.765625 L 232.671875 95.40625 L 232.816406 95.191406 L 232.886719 95.046875 L 233.105469 94.832031 L 233.390625 94.46875 L 233.464844 94.542969 L 233.535156 94.6875 L 233.609375 94.832031 L 233.679688 94.902344 L 233.753906 95.191406 L 233.679688 95.476562 L 233.320312 98.359375 L 232.886719 102.460938 L 232.816406 103.613281 L 232.816406 104.695312 L 232.671875 105.703125 L 232.527344 106.636719 L 232.527344 107.140625 L 232.382812 107.644531 L 232.3125 108.222656 L 232.167969 108.796875 L 232.023438 109.375 L 231.878906 110.09375 L 231.738281 110.742188 L 231.59375 111.535156 L 231.375 112.324219 L 231.234375 113.046875 L 231.089844 113.621094 L 230.945312 114.199219 L 230.800781 114.703125 L 230.730469 115.132812 L 230.511719 115.710938 L 230.367188 116.214844 L 230.082031 117.003906 L 229.792969 117.726562 L 229.214844 119.164062 L 228.855469 119.886719 L 228.136719 121.324219 L 227.703125 122.046875 L 227.273438 122.835938 L 226.839844 123.558594 L 226.335938 124.277344 L 225.90625 124.996094 L 224.898438 126.292969 L 224.394531 127.011719 L 223.816406 127.660156 L 222.953125 128.597656 L 222.089844 129.53125 L 221.226562 130.324219 L 220.289062 131.117188 L 219.425781 131.835938 L 218.488281 132.484375 L 217.554688 133.0625 L 216.617188 133.636719 L 216.113281 133.851562 L 215.679688 134.070312 L 214.671875 134.5 L 214.167969 134.644531 L 213.664062 134.859375 L 213.160156 135.003906 L 212.585938 135.148438 L 212.082031 135.222656 L 211.578125 135.363281 L 211 135.4375 L 210.425781 135.507812 L 209.921875 135.582031 L 208.769531 135.582031 L 208.195312 135.652344 L 207.472656 135.582031 Z M 206.898438 135.582031 "
       id="path42" />
    <path
       style="stroke:none;fill-rule:evenodd;fill:#ffffff;fill-opacity:1"
       d="M 325.910156 120.535156 L 323.171875 119.8125 L 322.667969 120.390625 L 322.164062 120.820312 L 321.804688 121.253906 L 321.445312 121.542969 L 320.941406 122.117188 L 320.292969 122.621094 L 319.574219 123.199219 L 317.988281 124.207031 L 317.199219 124.636719 L 316.40625 125.140625 L 315.46875 125.574219 L 314.605469 125.933594 L 313.667969 126.292969 L 312.660156 126.652344 L 311.726562 127.011719 L 310.933594 127.230469 L 310.070312 127.445312 L 309.207031 127.734375 L 308.34375 127.949219 L 307.335938 128.164062 L 306.324219 128.382812 L 305.316406 128.597656 L 304.238281 128.8125 L 303.085938 129.027344 L 301.863281 129.246094 L 300.566406 129.460938 L 299.269531 129.605469 L 297.972656 129.820312 L 296.605469 130.035156 L 295.167969 130.179688 L 292.144531 130.46875 L 290.628906 130.613281 L 289.191406 130.683594 L 287.75 130.828125 L 286.3125 130.828125 L 284.871094 130.902344 L 283.429688 130.972656 L 278.605469 130.972656 L 277.742188 130.902344 L 276.808594 130.828125 L 276.015625 130.828125 L 275.222656 130.757812 L 274.359375 130.683594 L 273.640625 130.613281 L 272.558594 130.46875 L 271.550781 130.253906 L 270.617188 130.035156 L 269.75 129.820312 L 268.960938 129.53125 L 268.238281 129.246094 L 267.664062 128.957031 L 267.015625 128.597656 L 266.800781 128.453125 L 266.582031 128.238281 L 266.296875 127.949219 L 266.078125 127.734375 L 265.933594 127.445312 L 265.71875 127.15625 L 265.574219 126.796875 L 265.503906 126.507812 L 265.359375 125.789062 L 265.214844 124.996094 L 265.144531 124.207031 L 265.070312 123.339844 L 265.070312 122.332031 L 265.144531 121.828125 L 265.144531 121.253906 L 265.214844 120.75 L 265.289062 120.171875 L 265.289062 119.597656 L 265.359375 119.019531 L 265.503906 118.445312 L 265.574219 118.011719 L 265.648438 117.582031 L 265.71875 117.222656 L 265.863281 117.003906 L 266.007812 116.789062 L 266.078125 116.789062 L 266.152344 116.71875 L 266.222656 116.644531 L 266.4375 116.644531 L 266.582031 116.71875 L 266.65625 116.789062 L 266.726562 116.933594 L 266.871094 117.078125 L 266.945312 117.222656 L 267.015625 117.4375 L 267.015625 117.726562 L 267.304688 118.734375 L 267.734375 119.742188 L 267.953125 120.101562 L 268.238281 120.460938 L 268.597656 120.75 L 268.960938 121.039062 L 269.390625 121.324219 L 269.824219 121.542969 L 270.328125 121.757812 L 270.902344 121.902344 L 271.480469 122.046875 L 272.054688 122.1875 L 273.351562 122.476562 L 274.070312 122.621094 L 274.792969 122.691406 L 275.582031 122.765625 L 276.375 122.910156 L 277.238281 122.980469 L 278.03125 123.054688 L 278.75 123.125 L 279.613281 123.125 L 280.335938 123.199219 L 281.125 123.269531 L 286.742188 123.269531 L 288.109375 123.199219 L 289.40625 123.199219 L 290.703125 123.125 L 292.070312 123.125 L 293.4375 123.054688 L 294.734375 122.980469 L 296.101562 122.910156 L 297.542969 122.765625 L 300.566406 122.476562 L 302.222656 122.261719 L 303.949219 122.046875 L 305.75 121.828125 L 307.621094 121.542969 L 308.484375 121.398438 L 309.351562 121.324219 L 310.070312 121.179688 L 310.863281 121.039062 L 311.4375 120.964844 L 312.015625 120.820312 L 312.519531 120.75 L 313.023438 120.675781 L 313.8125 120.535156 L 314.605469 120.390625 L 315.398438 120.171875 L 316.046875 120.03125 L 316.695312 119.8125 L 317.339844 119.667969 L 317.847656 119.527344 L 318.421875 119.308594 L 318.855469 119.09375 L 319.285156 118.949219 L 319.71875 118.804688 L 320.003906 118.734375 L 320.652344 118.445312 L 321.230469 118.230469 L 321.878906 117.871094 L 322.527344 117.582031 L 322.957031 117.292969 L 323.460938 116.933594 L 323.964844 116.5 L 324.398438 116.140625 L 324.46875 116.140625 L 324.613281 116.285156 L 324.613281 116.359375 L 324.683594 116.574219 L 324.757812 116.863281 L 324.683594 117.148438 L 324.613281 117.582031 L 325.191406 117.582031 L 325.476562 117.507812 L 325.910156 117.507812 L 325.980469 117.582031 L 325.980469 117.652344 L 325.980469 117.507812 L 326.628906 117.4375 L 327.207031 117.367188 L 327.566406 117.292969 L 327.851562 117.222656 L 328.355469 117.003906 L 328.789062 116.863281 L 329.222656 116.71875 L 329.507812 116.644531 L 330.300781 116.285156 L 331.019531 115.996094 L 331.742188 115.710938 L 332.316406 115.347656 L 332.75 115.132812 L 333.109375 114.917969 L 333.398438 114.703125 L 333.613281 114.484375 L 333.828125 114.199219 L 333.902344 114.054688 L 334.046875 113.835938 L 334.046875 113.621094 L 333.902344 112.757812 L 333.757812 112.46875 L 333.542969 112.324219 L 333.398438 112.109375 L 333.109375 111.964844 L 332.894531 111.820312 L 332.605469 111.820312 L 332.316406 111.75 L 331.957031 111.675781 L 330.804688 111.820312 L 330.660156 111.894531 L 330.515625 111.894531 L 330.300781 111.820312 L 330.230469 111.820312 L 330.15625 111.675781 L 330.085938 111.535156 L 330.085938 111.246094 L 330.230469 111.03125 L 330.375 110.8125 L 330.589844 110.597656 L 330.734375 110.308594 L 331.019531 110.023438 L 331.382812 109.804688 L 331.742188 109.519531 L 332.101562 109.230469 L 332.605469 108.871094 L 333.179688 108.582031 L 333.757812 108.292969 L 334.332031 108.078125 L 334.910156 107.863281 L 335.484375 107.789062 L 336.0625 107.71875 L 336.710938 107.644531 L 337.140625 107.71875 L 338.078125 107.71875 L 338.4375 107.789062 L 338.867188 107.863281 L 339.300781 107.933594 L 339.660156 108.003906 L 340.019531 108.148438 L 340.382812 108.292969 L 340.597656 108.4375 L 340.886719 108.582031 L 341.101562 108.796875 L 341.246094 109.015625 L 341.316406 109.230469 L 341.390625 109.519531 L 341.460938 109.804688 L 341.460938 110.023438 L 341.390625 110.308594 L 341.316406 110.527344 L 341.246094 110.742188 L 341.171875 110.957031 L 341.101562 111.171875 L 340.957031 111.390625 L 340.8125 111.675781 L 340.523438 112.039062 L 340.382812 112.324219 L 340.238281 112.542969 L 340.238281 112.6875 L 340.164062 112.757812 L 340.164062 112.828125 L 340.238281 112.902344 L 340.308594 112.902344 L 340.382812 113.046875 L 340.957031 113.046875 L 341.246094 112.972656 L 341.53125 112.902344 L 341.894531 112.757812 L 342.613281 112.46875 L 343.042969 112.324219 L 343.042969 112.253906 L 343.40625 112.039062 L 343.765625 111.820312 L 344.125 111.605469 L 344.484375 111.316406 L 344.773438 111.03125 L 345.132812 110.8125 L 345.347656 110.597656 L 345.566406 110.453125 L 345.925781 110.09375 L 345.925781 110.023438 L 346.355469 109.589844 L 346.859375 109.15625 L 347.292969 108.726562 L 347.796875 108.367188 L 348.15625 108.148438 L 348.515625 107.863281 L 348.875 107.71875 L 349.453125 107.429688 L 349.742188 107.359375 L 349.957031 107.285156 L 350.53125 107.285156 L 350.894531 107.359375 L 351.324219 107.5 L 351.757812 107.71875 L 352.1875 107.933594 L 352.546875 108.078125 L 352.765625 108.148438 L 352.980469 108.222656 L 353.125 108.222656 L 353.269531 108.148438 L 353.414062 108.003906 L 353.699219 107.789062 L 354.277344 107.214844 L 354.996094 106.351562 L 355.5 105.703125 L 355.933594 105.125 L 356.363281 104.621094 L 356.722656 104.261719 L 357.011719 104.046875 L 357.300781 103.828125 L 357.515625 103.613281 L 357.804688 103.46875 L 358.019531 103.324219 L 358.308594 103.253906 L 358.523438 103.183594 L 359.027344 103.183594 L 359.386719 103.253906 L 359.890625 103.398438 L 361.1875 103.6875 L 361.835938 103.828125 L 362.269531 103.902344 L 362.84375 103.902344 L 363.277344 103.46875 L 363.707031 102.964844 L 364.355469 102.175781 L 364.789062 101.671875 L 365.292969 101.09375 L 365.722656 100.589844 L 366.15625 100.015625 L 366.660156 99.511719 L 367.09375 98.933594 L 367.523438 98.359375 L 368.027344 97.855469 L 368.746094 97.277344 L 369.394531 96.703125 L 370.117188 96.125 L 370.765625 95.550781 L 371.410156 95.191406 L 371.914062 94.832031 L 372.5625 94.542969 L 373.066406 94.253906 L 373.644531 94.109375 L 374.148438 93.964844 L 374.722656 93.894531 L 376.164062 93.894531 L 376.523438 93.964844 L 376.882812 94.109375 L 377.171875 94.183594 L 377.460938 94.328125 L 377.675781 94.46875 L 377.890625 94.6875 L 378.109375 94.902344 L 378.25 95.117188 L 378.394531 95.335938 L 378.46875 95.621094 L 378.539062 95.910156 L 378.613281 96.199219 L 378.683594 96.558594 L 378.683594 96.847656 L 378.613281 97.496094 L 378.539062 98 L 378.25 99.148438 L 378.035156 99.726562 L 377.746094 100.375 L 377.386719 101.09375 L 376.957031 101.8125 L 376.453125 102.605469 L 376.019531 103.398438 L 375.515625 104.046875 L 375.082031 104.695312 L 374.722656 105.199219 L 373.933594 105.988281 L 373.570312 106.421875 L 373.140625 106.78125 L 372.851562 107.070312 L 372.417969 107.359375 L 372.058594 107.644531 L 371.410156 108.003906 L 370.835938 108.4375 L 370.1875 108.796875 L 369.683594 109.085938 L 369.035156 109.375 L 368.53125 109.660156 L 368.027344 109.804688 L 367.523438 110.023438 L 366.949219 110.164062 L 365.941406 110.453125 L 365.4375 110.527344 L 364.933594 110.597656 L 364.355469 110.667969 L 363.851562 110.742188 L 362.484375 110.742188 L 361.691406 110.667969 L 361.042969 110.597656 L 360.46875 110.453125 L 359.964844 110.308594 L 358.957031 109.878906 L 357.949219 109.300781 L 357.589844 109.085938 L 357.371094 108.871094 L 357.15625 108.726562 L 356.867188 108.511719 L 356.652344 108.148438 L 356.4375 108.4375 L 356.292969 108.582031 L 355.789062 109.15625 L 354.78125 110.164062 L 354.421875 110.597656 L 354.058594 110.957031 L 353.699219 111.246094 L 353.414062 111.535156 L 353.050781 111.820312 L 352.765625 112.039062 L 352.40625 112.183594 L 352.117188 112.324219 L 351.828125 112.46875 L 351.46875 112.542969 L 351.253906 112.613281 L 350.894531 112.613281 L 350.53125 112.542969 L 349.882812 112.324219 L 349.453125 112.183594 L 349.09375 112.039062 L 348.734375 111.964844 L 348.15625 111.964844 L 347.941406 112.039062 L 347.652344 112.109375 L 347.363281 112.253906 L 347.078125 112.398438 L 346.789062 112.542969 L 346.070312 112.972656 L 343.117188 115.277344 L 343.042969 115.277344 L 343.042969 115.347656 L 342.539062 115.710938 L 341.964844 116.070312 L 341.675781 116.214844 L 341.460938 116.359375 L 341.171875 116.429688 L 340.957031 116.5 L 340.453125 116.644531 L 339.804688 116.789062 L 339.085938 116.789062 L 338.292969 116.863281 L 338.078125 116.789062 L 337.71875 116.789062 L 337.355469 116.71875 L 336.996094 116.644531 L 336.566406 116.5 L 336.277344 116.429688 L 335.628906 116.429688 L 335.339844 116.5 L 334.980469 116.644531 L 334.550781 116.933594 L 333.613281 117.582031 L 332.820312 118.15625 L 332.101562 118.589844 L 331.597656 118.949219 L 331.164062 119.308594 L 330.734375 119.597656 L 330.375 119.886719 L 330.011719 120.171875 L 329.652344 120.316406 L 329.367188 120.535156 L 329.078125 120.675781 L 328.71875 120.820312 L 328.429688 120.894531 L 328.140625 120.964844 L 327.851562 120.964844 L 327.636719 121.039062 L 325.980469 120.605469 L 325.980469 120.390625 L 325.980469 120.460938 Z M 375.660156 99.4375 L 375.660156 99.367188 L 375.515625 99.222656 L 375.371094 99.148438 L 375.082031 99.007812 L 374.578125 98.863281 L 374.074219 98.644531 L 373.570312 98.503906 L 373.140625 98.429688 L 372.058594 98.429688 L 371.699219 98.503906 L 371.339844 98.574219 L 370.980469 98.71875 L 370.691406 98.863281 L 370.332031 98.933594 L 369.972656 99.148438 L 369.683594 99.367188 L 369.394531 99.582031 L 369.035156 99.796875 L 368.675781 100.015625 L 367.957031 100.660156 L 366.226562 102.390625 L 365.867188 102.820312 L 365.507812 103.183594 L 365.292969 103.613281 L 365.074219 103.972656 L 365.582031 103.972656 L 366.085938 103.902344 L 366.445312 103.828125 L 366.804688 103.828125 L 367.8125 103.6875 L 368.820312 103.46875 L 369.757812 103.183594 L 370.691406 102.894531 L 371.554688 102.535156 L 372.347656 102.175781 L 373.140625 101.742188 L 373.859375 101.308594 L 374.292969 101.09375 L 374.652344 100.804688 L 375.011719 100.589844 L 375.226562 100.300781 L 375.445312 100.085938 L 375.585938 99.871094 L 375.660156 99.652344 Z M 375.660156 99.4375 "
       id="path44" />
    <path
       style="stroke:none;fill-rule:evenodd;fill:#ffffff;fill-opacity:1"
       d="M 80.523438 155.058594 L 91.816406 155.058594 L 93.589844 81.050781 L 96.210938 77.351562 L 97.40625 75.652344 L 73.625 75.652344 L 77.015625 81.050781 Z M 82.566406 81.050781 C 84.144531 79.394531 86.613281 79.160156 87.960938 81.089844 L 87.921875 130.851562 L 84.414062 130.851562 Z M 82.566406 81.050781 "
       id="path46" />
    <path
       style="stroke:none;fill-rule:evenodd;fill:#ffffff;fill-opacity:1"
       d="M 272.992188 78.628906 L 272.917969 78.488281 L 272.847656 78.34375 L 272.703125 78.199219 L 272.488281 78.488281 L 272.34375 78.703125 L 272.128906 78.992188 L 271.984375 79.351562 L 271.839844 79.566406 L 271.765625 79.855469 L 269.824219 85.398438 L 269.175781 87.703125 L 269.175781 88.78125 L 269.101562 89.359375 L 269.101562 91.085938 L 269.03125 91.734375 L 269.101562 92.382812 L 269.03125 93.101562 L 269.03125 93.75 L 268.960938 94.46875 L 268.886719 95.261719 L 268.816406 95.980469 L 268.742188 96.773438 L 268.671875 97.636719 L 268.527344 98.429688 L 268.457031 99.078125 L 268.382812 99.726562 L 268.238281 100.519531 L 268.09375 101.453125 L 267.878906 102.390625 L 267.664062 103.398438 L 267.449219 104.332031 L 267.230469 105.34375 L 267.519531 105.847656 L 267.664062 105.847656 L 267.734375 105.773438 L 267.878906 105.703125 L 268.457031 105.125 L 268.671875 104.765625 L 269.03125 104.117188 L 269.390625 103.398438 L 269.824219 102.460938 L 271.335938 98.789062 L 271.625 98 L 272.054688 96.414062 L 272.199219 95.695312 L 272.34375 94.902344 L 272.414062 94.039062 L 272.558594 93.03125 L 272.558594 92.023438 L 272.773438 85.398438 L 272.847656 81.292969 L 272.992188 78.773438 Z M 272.992188 78.628906 "
       id="path48" />
    <path
       style="stroke:none;fill-rule:evenodd;fill:#ffffff;fill-opacity:1"
       d="M 259.527344 140.332031 L 259.816406 140.476562 L 260.175781 140.691406 L 260.894531 141.339844 L 261.542969 141.917969 L 262.40625 142.78125 L 262.695312 143.210938 L 262.910156 143.574219 L 263.054688 144.078125 L 263.128906 144.507812 L 263.199219 144.867188 L 263.199219 145.371094 L 263.128906 145.804688 L 262.984375 146.238281 L 262.839844 146.667969 L 262.695312 147.246094 L 262.40625 147.75 L 262.121094 148.324219 L 261.832031 148.902344 L 261.398438 149.476562 L 260.96875 149.980469 L 260.175781 150.773438 L 259.886719 150.917969 L 259.742188 150.988281 L 259.671875 151.058594 L 259.527344 151.132812 L 259.457031 151.132812 L 259.3125 151.058594 L 259.023438 150.917969 L 258.734375 150.699219 L 258.304688 150.339844 L 257.945312 150.050781 L 257.511719 149.691406 L 257.152344 149.40625 L 256.792969 149.117188 L 256.433594 148.902344 L 256.144531 148.613281 L 255.929688 148.394531 L 255.640625 148.109375 L 255.425781 147.890625 L 255.28125 147.675781 L 255.207031 147.460938 L 255.136719 147.316406 L 255.425781 146.8125 L 255.566406 146.378906 L 255.710938 146.019531 L 255.929688 145.734375 L 256.289062 144.867188 L 256.574219 144.148438 L 256.863281 143.574219 L 257.078125 143.140625 L 257.441406 142.566406 L 258.519531 140.621094 L 258.734375 140.332031 L 259.023438 139.902344 L 259.3125 140.117188 Z M 259.527344 140.332031 "
       id="path50" />
    <path
       style="stroke:none;fill-rule:evenodd;fill:#ffffff;fill-opacity:1"
       d="M 251.246094 140.765625 L 251.464844 140.980469 L 251.824219 141.195312 L 252.617188 141.84375 L 253.265625 142.421875 L 253.769531 142.851562 L 254.128906 143.285156 L 254.34375 143.644531 L 254.558594 144.078125 L 254.703125 144.507812 L 254.847656 145.011719 L 254.847656 146.238281 L 254.703125 146.667969 L 254.558594 147.246094 L 254.128906 148.253906 L 253.839844 148.828125 L 253.480469 149.40625 L 253.121094 149.910156 L 252.6875 150.414062 L 252.183594 150.917969 L 251.894531 151.203125 L 251.609375 151.421875 L 251.320312 151.5625 L 250.960938 151.5625 L 250.742188 151.421875 L 250.457031 151.203125 L 250.023438 150.84375 L 249.664062 150.554688 L 249.230469 150.195312 L 248.871094 149.910156 L 248.152344 149.332031 L 247.863281 149.117188 L 247.359375 148.613281 L 247.144531 148.394531 L 246.855469 147.964844 L 246.855469 147.820312 L 247.070312 147.316406 L 247.289062 146.882812 L 247.433594 146.523438 L 247.574219 146.164062 L 247.9375 145.371094 L 248.296875 144.652344 L 248.585938 144.078125 L 248.800781 143.574219 L 249.160156 142.996094 L 249.519531 142.347656 L 249.878906 141.773438 L 250.238281 141.125 L 250.457031 140.835938 L 250.742188 140.40625 L 250.960938 140.621094 Z M 251.246094 140.765625 "
       id="path52" />
    <path
       style="stroke:none;fill-rule:evenodd;fill:#ffffff;fill-opacity:1"
       d="M 347.941406 76.613281 L 348.230469 76.757812 L 348.589844 76.976562 L 349.378906 77.621094 L 350.027344 78.199219 L 350.53125 78.703125 L 350.894531 79.0625 L 351.109375 79.496094 L 351.324219 79.855469 L 351.46875 80.285156 L 351.613281 80.789062 L 351.683594 81.152344 L 351.613281 81.582031 L 351.613281 82.085938 L 351.46875 82.519531 L 351.324219 82.949219 L 351.109375 83.453125 L 350.894531 84.03125 L 350.605469 84.605469 L 350.246094 85.183594 L 349.8125 85.757812 L 349.453125 86.261719 L 348.949219 86.765625 L 348.589844 87.054688 L 348.300781 87.199219 L 348.230469 87.269531 L 348.085938 87.34375 L 347.726562 87.34375 L 347.507812 87.199219 L 347.148438 86.984375 L 346.789062 86.621094 L 346.355469 86.261719 L 345.996094 85.972656 L 345.636719 85.6875 L 345.277344 85.398438 L 344.917969 85.183594 L 344.628906 84.894531 L 344.339844 84.679688 L 344.125 84.390625 L 343.835938 84.175781 L 343.765625 83.957031 L 343.621094 83.742188 L 343.621094 83.597656 L 343.835938 83.09375 L 344.054688 82.664062 L 344.195312 82.300781 L 344.339844 82.015625 L 344.699219 81.152344 L 345.0625 80.429688 L 345.347656 79.855469 L 345.566406 79.421875 L 345.925781 78.773438 L 346.285156 78.199219 L 347.003906 76.902344 L 347.222656 76.613281 L 347.507812 76.183594 L 347.726562 76.398438 Z M 347.941406 76.613281 "
       id="path54" />
    <path
       style="stroke:none;fill-rule:nonzero;fill:#ffffff;fill-opacity:1"
       d="M 396.082031 112.921875 C 395.394531 115.871094 394.691406 118.070312 393.972656 119.515625 C 393.261719 120.953125 392.679688 121.867188 392.222656 122.25 C 391.761719 122.625 391.058594 123.054688 390.113281 123.53125 C 389.175781 124.011719 387.730469 124.703125 385.785156 125.609375 C 383.835938 126.507812 382.675781 126.976562 382.300781 127.015625 C 382.058594 127.046875 381.9375 127.007812 381.925781 126.890625 C 381.644531 126.601562 382.722656 125.40625 385.160156 123.3125 C 387.605469 121.21875 389.179688 119.851562 389.878906 119.203125 C 390.574219 118.546875 391.261719 117.640625 391.941406 116.484375 C 392.617188 115.328125 393.070312 114.058594 393.300781 112.671875 C 392.882812 112.664062 392.476562 112.792969 392.082031 113.0625 C 391.683594 113.335938 391.277344 113.492188 390.863281 113.53125 C 389.789062 113.648438 388.847656 113.414062 388.035156 112.828125 C 387.222656 112.246094 386.832031 111.53125 386.863281 110.6875 C 386.914062 110.179688 387.007812 109.585938 387.144531 108.90625 C 387.289062 108.230469 387.621094 107.136719 388.144531 105.625 C 388.675781 104.105469 389.242188 102.839844 389.847656 101.828125 C 390.449219 100.808594 391.101562 100.257812 391.800781 100.171875 C 392.988281 100.039062 394.039062 100.429688 394.957031 101.34375 C 395.882812 102.261719 396.433594 103.433594 396.613281 104.859375 C 396.695312 105.601562 396.738281 106.335938 396.738281 107.0625 C 396.746094 107.78125 396.726562 108.390625 396.675781 108.890625 C 396.632812 109.382812 396.558594 110.007812 396.457031 110.765625 C 396.363281 111.527344 396.238281 112.246094 396.082031 112.921875 Z M 396.082031 112.921875 "
       id="path56" />
  </g>
</svg>
