<?xml version="1.0" standalone="no"?>
<!DOCTYPE svg PUBLIC "-//W3C//DTD SVG 20010904//EN"
 "http://www.w3.org/TR/2001/REC-SVG-20010904/DTD/svg10.dtd">
<svg version="1.0" xmlns="http://www.w3.org/2000/svg"
 width="946.000000pt" height="353.000000pt" viewBox="0 0 946.000000 353.000000"
 preserveAspectRatio="xMidYMid meet">
<metadata>
Created by potrace 1.16, written by Peter Selinger 2001-2019
</metadata>
<g transform="translate(0.000000,353.000000) scale(0.100000,-0.100000)"
fill="#000000" stroke="none">
<path d="M4873 3218 c-109 -112 -140 -329 -69 -484 26 -57 100 -144 122 -144
21 0 18 8 -21 53 -63 73 -80 133 -80 282 0 149 17 209 80 282 19 23 35 44 35
47 0 18 -31 1 -67 -36z"/>
<path d="M5340 3247 c0 -8 11 -24 24 -36 35 -33 76 -133 88 -214 19 -124 -24
-298 -88 -358 -24 -23 -32 -49 -14 -49 5 0 25 16 44 35 99 98 138 258 101 413
-19 80 -45 131 -93 182 -40 41 -62 51 -62 27z"/>
<path d="M4420 3221 c-133 -43 -240 -170 -240 -284 0 -89 58 -165 142 -187 53
-15 132 -5 176 20 28 17 34 18 38 5 4 -8 12 -15 20 -15 12 0 21 23 40 105 9
39 22 55 45 55 11 0 19 6 19 13 0 9 -27 12 -100 13 -78 1 -100 -2 -100 -12 0
-8 10 -14 24 -14 45 0 54 -8 46 -43 -16 -74 -56 -102 -142 -102 -84 0 -144 69
-133 155 10 87 36 142 89 195 117 117 266 88 266 -51 0 -31 4 -44 14 -44 16 0
65 184 53 197 -4 4 -19 -5 -34 -19 l-26 -27 -31 22 c-32 23 -121 33 -166 18z"/>
<path d="M5136 3050 c-47 -15 -76 -49 -76 -90 0 -43 20 -65 70 -75 51 -11 70
-23 70 -45 0 -36 -35 -60 -87 -60 -54 0 -86 13 -59 23 20 8 21 53 1 61 -38 14
-67 -32 -45 -74 34 -63 189 -49 225 21 20 38 19 82 -2 102 -10 8 -39 21 -65
27 -66 17 -76 32 -44 65 40 40 119 30 85 -11 -10 -12 -9 -18 3 -30 23 -24 48
-7 48 33 0 29 -5 36 -35 49 -38 16 -47 16 -89 4z"/>
<path d="M3590 1900 c0 -360 -4 -630 -9 -630 -30 0 -196 57 -250 85 -36 19
-66 33 -67 32 -2 -1 10 -22 27 -46 16 -24 29 -48 29 -53 0 -4 -619 -8 -1375
-8 -1368 0 -1375 0 -1375 -20 0 -20 7 -20 1375 -20 1305 0 1374 -1 1368 -17
-3 -10 -17 -32 -29 -50 -13 -17 -24 -34 -24 -37 0 -4 24 7 53 23 55 31 176 75
240 86 l37 7 0 -626 0 -626 1270 0 1270 0 0 620 0 620 1515 0 c1054 0 1515 -3
1515 -11 0 -5 -11 -27 -25 -47 -14 -20 -25 -39 -25 -42 0 -3 38 13 83 35 46
22 119 49 163 60 76 18 116 35 82 35 -35 0 -197 53 -260 85 -38 19 -68 32 -68
29 0 -3 11 -22 25 -42 14 -20 25 -42 25 -49 0 -11 -298 -13 -1515 -13 l-1515
0 0 625 0 625 -1270 0 -1270 0 0 -630z m2490 -635 l0 -1225 -1220 0 -1220 0 0
1225 0 1225 1220 0 1220 0 0 -1225z"/>
<path d="M5194 1798 c-4 -6 -3 -13 2 -15 32 -11 32 -19 -1 -155 -28 -111 -32
-143 -24 -172 35 -127 223 -54 237 92 4 41 0 52 -23 80 -21 25 -35 32 -62 32
-19 0 -43 -4 -53 -10 -17 -9 -17 -7 1 63 10 39 19 78 19 85 0 16 -86 16 -96 0z
m152 -187 c13 -25 0 -104 -24 -148 -14 -26 -61 -52 -80 -46 -44 16 -25 148 28
196 36 32 59 32 76 -2z"/>
<path d="M4867 1763 c-4 -3 -7 -51 -7 -105 l0 -98 -100 0 c-82 0 -100 -3 -100
-15 0 -12 18 -15 100 -15 l100 0 0 -100 c0 -79 3 -100 14 -100 21 0 26 23 26
115 l0 84 97 3 c66 2 98 7 101 16 3 9 -21 12 -97 12 l-101 0 0 89 c0 108 -9
139 -33 114z"/>
<path d="M4435 1648 c-31 -17 -45 -39 -45 -74 0 -39 13 -50 79 -70 56 -16 66
-37 31 -69 -22 -20 -95 -24 -113 -6 -8 8 -8 11 1 11 7 0 12 12 12 26 0 22 -4
25 -27 22 -25 -3 -28 -7 -28 -38 0 -41 28 -60 88 -60 73 0 137 48 137 103 0
29 -36 58 -85 71 -38 9 -50 17 -50 31 0 26 45 50 78 41 24 -6 26 -9 16 -27
-13 -25 0 -43 27 -37 29 5 30 52 2 72 -26 18 -93 21 -123 4z"/>
<path d="M4260 1280 c0 -20 7 -20 600 -20 593 0 600 0 600 20 0 20 -7 20 -600
20 -593 0 -600 0 -600 -20z"/>
<path d="M4827 1153 c-4 -3 -7 -51 -7 -105 l0 -98 -100 0 c-82 0 -100 -3 -100
-15 0 -12 18 -15 100 -15 l100 0 0 -100 c0 -79 3 -100 14 -100 21 0 26 23 26
115 l0 84 97 3 c66 2 98 7 101 16 3 9 -21 12 -97 12 l-101 0 0 89 c0 108 -9
139 -33 114z"/>
<path d="M4405 1038 c-31 -17 -45 -39 -45 -74 0 -39 13 -50 79 -70 56 -16 66
-37 31 -69 -22 -20 -95 -24 -113 -6 -8 8 -8 11 1 11 7 0 12 12 12 26 0 22 -4
25 -27 22 -25 -3 -28 -7 -28 -38 0 -41 28 -60 88 -60 73 0 137 48 137 103 0
29 -36 58 -85 71 -38 9 -50 17 -50 31 0 26 45 50 78 41 24 -6 26 -9 16 -27
-13 -25 0 -43 27 -37 29 5 30 52 2 72 -26 18 -93 21 -123 4z"/>
<path d="M5207 1032 c-95 -64 -114 -207 -32 -244 28 -13 88 -3 105 17 10 12
14 11 31 -6 19 -19 55 -25 76 -11 20 13 46 83 34 95 -7 7 -15 -3 -27 -32 -15
-38 -36 -52 -48 -33 -3 5 6 52 20 106 13 53 22 101 19 107 -4 5 -18 9 -33 9
-15 0 -47 3 -72 6 -34 4 -52 0 -73 -14z m97 -18 c19 -18 20 -39 5 -102 -18
-73 -72 -121 -111 -100 -36 18 -15 138 33 189 30 33 50 36 73 13z"/>
<path d="M7636 2065 c-25 -23 -56 -81 -56 -105 0 -5 6 -10 14 -10 7 0 21 21
31 46 18 49 56 77 76 57 8 -8 3 -36 -20 -101 -55 -161 -36 -242 59 -242 23 0
51 5 62 11 19 10 20 9 14 -17 -12 -47 -54 -103 -91 -121 -28 -14 -39 -14 -61
-4 l-27 12 22 15 c30 22 26 68 -7 72 -33 5 -52 -15 -52 -54 0 -54 32 -77 102
-72 63 5 113 36 154 96 24 35 120 404 109 421 -10 17 -43 13 -53 -6 -5 -10
-22 -70 -37 -133 -33 -137 -46 -165 -85 -185 -36 -19 -45 -19 -64 1 -23 23
-20 84 9 170 32 94 32 138 3 158 -33 23 -71 20 -102 -9z"/>
<path d="M1926 1905 c-25 -23 -56 -81 -56 -105 0 -27 28 -5 48 39 13 29 31 53
43 56 41 13 43 -9 10 -103 -57 -166 -36 -242 66 -242 32 0 56 7 73 20 25 19
25 19 46 -1 16 -15 32 -19 60 -17 35 3 41 8 62 48 24 48 29 94 10 88 -6 -2
-17 -25 -25 -51 -16 -55 -46 -78 -62 -48 -8 14 -2 54 25 161 20 78 33 148 30
156 -8 20 -43 18 -54 -3 -5 -10 -22 -70 -37 -133 -33 -137 -46 -165 -85 -185
-36 -19 -45 -19 -64 1 -23 23 -20 84 9 170 32 94 32 138 3 158 -33 23 -71 20
-102 -9z"/>
</g>
</svg>
