<?xml version="1.0" standalone="no"?>
<!DOCTYPE svg PUBLIC "-//W3C//DTD SVG 20010904//EN"
 "http://www.w3.org/TR/2001/REC-SVG-20010904/DTD/svg10.dtd">
<svg version="1.0" xmlns="http://www.w3.org/2000/svg"
 width="1201.000000pt" height="353.000000pt" viewBox="0 0 1201.000000 353.000000"
 preserveAspectRatio="xMidYMid meet">
<metadata>
Created by potrace 1.16, written by Peter Selinger 2001-2019
</metadata>
<g transform="translate(0.000000,353.000000) scale(0.100000,-0.100000)"
fill="#000000" stroke="none">
<path d="M6143 3218 c-109 -112 -140 -329 -69 -484 26 -57 100 -144 122 -144
21 0 18 8 -21 53 -63 73 -80 133 -80 282 0 149 17 209 80 282 19 23 35 44 35
47 0 18 -31 1 -67 -36z"/>
<path d="M6610 3247 c0 -8 11 -24 24 -36 35 -33 76 -133 88 -214 19 -124 -24
-298 -88 -358 -24 -23 -32 -49 -14 -49 5 0 25 16 44 35 99 98 138 258 101 413
-19 80 -45 131 -93 182 -40 41 -62 51 -62 27z"/>
<path d="M5690 3221 c-133 -43 -240 -170 -240 -284 0 -89 58 -165 142 -187 53
-15 132 -5 176 20 28 17 34 18 38 5 4 -8 12 -15 20 -15 12 0 21 23 40 105 9
39 22 55 45 55 11 0 19 6 19 13 0 9 -27 12 -100 13 -78 1 -100 -2 -100 -12 0
-8 10 -14 24 -14 45 0 54 -8 46 -43 -16 -74 -56 -102 -142 -102 -84 0 -144 69
-133 155 10 87 36 142 89 195 117 117 266 88 266 -51 0 -31 4 -44 14 -44 16 0
65 184 53 197 -4 4 -19 -5 -34 -19 l-26 -27 -31 22 c-32 23 -121 33 -166 18z"/>
<path d="M6416 3050 c-47 -15 -76 -49 -76 -90 0 -43 20 -65 70 -75 51 -11 70
-23 70 -45 0 -36 -35 -60 -87 -60 -54 0 -86 13 -59 23 20 8 21 53 1 61 -38 14
-67 -32 -45 -74 34 -63 189 -49 225 21 20 38 19 82 -2 102 -10 8 -39 21 -65
27 -66 17 -76 32 -44 65 40 40 119 30 85 -11 -10 -12 -9 -18 3 -30 23 -24 48
-7 48 33 0 29 -5 36 -35 49 -38 16 -47 16 -89 4z"/>
<path d="M3590 1900 c0 -360 -4 -630 -9 -630 -30 0 -196 57 -250 85 -36 19
-66 33 -67 32 -2 -1 10 -22 27 -46 16 -24 29 -48 29 -53 0 -4 -619 -8 -1375
-8 -1368 0 -1375 0 -1375 -20 0 -20 7 -20 1375 -20 1305 0 1374 -1 1368 -17
-3 -10 -17 -32 -29 -50 -13 -17 -24 -34 -24 -37 0 -4 24 7 53 23 55 31 176 75
240 86 l37 7 0 -626 0 -626 2545 0 2545 0 0 620 0 620 1520 0 1520 0 -20 -39
c-11 -22 -24 -42 -30 -46 -5 -3 -10 -10 -10 -15 0 -5 28 6 63 25 34 19 105 46
157 60 52 15 102 29 110 32 8 3 -25 16 -75 29 -49 13 -126 42 -170 63 -44 22
-81 38 -83 36 -2 -2 7 -19 21 -37 13 -18 27 -41 30 -51 6 -16 -70 -17 -1513
-17 l-1520 0 0 625 0 625 -2545 0 -2545 0 0 -630z m5050 -635 l0 -1225 -2500
0 -2500 0 0 1225 0 1225 2500 0 2500 0 0 -1225z"/>
<path d="M6464 1848 c-4 -6 -3 -13 2 -15 32 -11 32 -19 -1 -155 -28 -111 -32
-143 -24 -172 35 -127 223 -54 237 92 4 41 0 52 -23 80 -21 25 -35 32 -62 32
-19 0 -43 -4 -53 -10 -17 -9 -17 -7 1 63 10 39 19 78 19 85 0 16 -86 16 -96 0z
m152 -187 c13 -25 0 -104 -24 -148 -14 -26 -61 -52 -80 -46 -44 16 -25 148 28
196 36 32 59 32 76 -2z"/>
<path d="M6137 1813 c-4 -3 -7 -51 -7 -105 l0 -98 -100 0 c-82 0 -100 -3 -100
-15 0 -12 18 -15 100 -15 l100 0 0 -100 c0 -79 3 -100 14 -100 21 0 26 23 26
115 l0 84 97 3 c66 2 98 7 101 16 3 9 -21 12 -97 12 l-101 0 0 89 c0 108 -9
139 -33 114z"/>
<path d="M5715 1698 c-31 -17 -45 -39 -45 -74 0 -39 13 -50 79 -70 56 -16 66
-37 31 -69 -22 -20 -95 -24 -113 -6 -8 8 -8 11 1 11 7 0 12 12 12 26 0 22 -4
25 -27 22 -25 -3 -28 -7 -28 -38 0 -41 28 -60 88 -60 73 0 137 48 137 103 0
29 -36 58 -85 71 -38 9 -50 17 -50 31 0 26 45 50 78 41 24 -6 26 -9 16 -27
-13 -25 0 -43 27 -37 29 5 30 52 2 72 -26 18 -93 21 -123 4z"/>
<path d="M3990 1330 c0 -20 7 -20 2150 -20 2143 0 2150 0 2150 20 0 20 -7 20
-2150 20 -2143 0 -2150 0 -2150 -20z"/>
<path d="M4404 1270 c-42 -9 -54 -18 -65 -48 -12 -30 9 -59 35 -49 19 7 22 47
4 47 -22 1 25 30 48 30 29 0 74 -37 74 -60 0 -25 -46 -77 -115 -130 -30 -23
-55 -46 -55 -51 0 -5 47 -9 104 -9 l104 0 6 31 c9 44 8 49 -8 49 -7 0 -16 -9
-19 -20 -4 -17 -14 -20 -58 -20 -58 0 -59 -1 23 59 60 43 75 71 64 116 -11 44
-78 70 -142 55z"/>
<path d="M8004 1270 c-42 -9 -54 -18 -65 -48 -12 -30 9 -59 35 -49 19 7 22 47
4 47 -22 1 25 30 48 30 29 0 74 -37 74 -60 0 -25 -46 -77 -115 -130 -30 -23
-55 -46 -55 -51 0 -5 47 -9 104 -9 l104 0 6 31 c9 44 8 49 -8 49 -7 0 -16 -9
-19 -20 -4 -17 -14 -20 -58 -20 -58 0 -59 -1 23 59 60 43 75 71 64 116 -11 44
-78 70 -142 55z"/>
<path d="M5660 1218 c0 -27 -7 -37 -35 -56 -45 -29 -101 -114 -114 -174 -21
-92 9 -142 102 -171 66 -21 86 -40 66 -63 -12 -15 -24 -15 -61 1 -13 5 -18 3
-18 -8 0 -18 21 -27 65 -27 40 0 65 29 65 76 0 38 -9 46 -80 69 -96 30 -121
83 -81 171 11 23 36 60 56 82 33 38 41 41 93 44 45 2 58 7 60 21 3 14 -4 17
-42 17 -42 0 -46 2 -46 25 0 16 -6 25 -15 25 -10 0 -15 -10 -15 -32z"/>
<path d="M5228 1214 c-35 -19 -62 -69 -53 -101 4 -19 11 -24 33 -21 21 2 28 9
30 31 2 15 -1 27 -7 27 -6 0 -11 5 -11 11 0 20 34 38 71 39 73 0 105 -81 61
-152 -12 -18 -57 -69 -101 -113 -45 -44 -81 -83 -81 -87 0 -10 247 -10 253 0
3 4 8 28 11 55 6 39 5 47 -8 47 -9 0 -16 -8 -16 -19 0 -32 -24 -42 -96 -39
l-68 3 82 68 c84 69 112 107 112 152 0 38 -26 83 -60 100 -37 19 -117 19 -152
-1z"/>
<path d="M4877 1203 c-4 -3 -7 -51 -7 -105 l0 -98 -100 0 c-82 0 -100 -3 -100
-15 0 -12 18 -15 100 -15 l100 0 0 -100 c0 -79 3 -100 14 -100 21 0 26 23 26
115 l0 84 97 3 c66 2 98 7 101 16 3 9 -21 12 -97 12 l-101 0 0 89 c0 108 -9
139 -33 114z"/>
<path d="M7197 1203 c-4 -3 -7 -51 -7 -105 l0 -98 -100 0 c-82 0 -100 -3 -100
-15 0 -12 18 -15 100 -15 l100 0 0 -100 c0 -79 3 -100 14 -100 21 0 26 23 26
115 l0 84 97 3 c66 2 98 7 101 16 3 9 -21 12 -97 12 l-101 0 0 89 c0 108 -9
139 -33 114z"/>
<path d="M4125 1088 c-31 -17 -45 -39 -45 -74 0 -39 13 -50 79 -70 56 -16 66
-37 31 -69 -22 -20 -95 -24 -113 -6 -8 8 -8 11 1 11 7 0 12 12 12 26 0 22 -4
25 -27 22 -25 -3 -28 -7 -28 -38 0 -41 28 -60 88 -60 73 0 137 48 137 103 0
29 -36 58 -85 71 -38 9 -50 17 -50 31 0 26 45 50 78 41 24 -6 26 -9 16 -27
-13 -25 0 -43 27 -37 29 5 30 52 2 72 -26 18 -93 21 -123 4z"/>
<path d="M5872 1073 c-28 -41 -42 -90 -42 -148 0 -42 5 -56 25 -75 20 -18 31
-22 62 -17 20 4 45 15 56 25 18 19 19 19 42 -4 48 -48 116 -23 160 57 23 43
29 66 29 118 1 57 -2 66 -18 69 -11 2 -26 -4 -33 -14 -11 -14 -9 -22 8 -50 18
-30 19 -35 5 -67 -29 -70 -86 -98 -126 -62 -14 13 -15 22 -6 55 8 31 7 43 -3
52 -17 17 -41 -15 -41 -53 0 -55 -96 -94 -120 -50 -21 40 -5 105 37 153 15 16
11 38 -7 38 -5 0 -17 -12 -28 -27z"/>
<path d="M6765 1088 c-31 -17 -45 -39 -45 -74 0 -39 13 -50 79 -70 56 -16 66
-37 31 -69 -22 -20 -95 -24 -113 -6 -8 8 -8 11 1 11 7 0 12 12 12 26 0 22 -4
25 -27 22 -25 -3 -28 -7 -28 -38 0 -41 28 -60 88 -60 73 0 137 48 137 103 0
29 -36 58 -85 71 -38 9 -50 17 -50 31 0 26 45 50 78 41 24 -6 26 -9 16 -27
-13 -25 0 -43 27 -37 29 5 30 52 2 72 -26 18 -93 21 -123 4z"/>
<path d="M7522 1073 c-28 -41 -42 -90 -42 -148 0 -42 5 -56 25 -75 20 -18 31
-22 62 -17 20 4 45 15 56 25 18 19 19 19 42 -4 48 -48 116 -23 160 57 23 43
29 66 29 118 1 57 -2 66 -18 69 -11 2 -26 -4 -33 -14 -11 -14 -9 -22 8 -50 18
-30 19 -35 5 -67 -29 -70 -86 -98 -126 -62 -14 13 -15 22 -6 55 8 31 7 43 -3
52 -17 17 -41 -15 -41 -53 0 -55 -96 -94 -120 -50 -21 40 -5 105 37 153 15 16
11 38 -7 38 -5 0 -17 -12 -28 -27z"/>
<path d="M6275 898 c-10 -24 -10 -34 -2 -37 6 -2 13 1 14 6 2 6 10 19 18 29
24 34 29 5 12 -67 -18 -73 -16 -89 8 -89 13 0 35 56 35 87 0 23 62 83 85 83
32 0 36 -19 15 -79 -22 -60 -18 -79 17 -87 31 -8 67 11 82 43 14 31 14 33 -3
33 -8 0 -18 -9 -21 -20 -3 -11 -16 -25 -27 -31 -23 -12 -23 -10 4 79 9 31 9
48 2 60 -13 21 -84 28 -115 12 -15 -9 -24 -9 -32 -1 -6 6 -26 11 -44 11 -29 0
-36 -5 -48 -32z"/>
<path d="M7915 818 c-10 -24 -10 -34 -2 -37 6 -2 13 1 14 6 2 6 10 19 18 29
24 34 29 5 12 -67 -18 -73 -16 -89 8 -89 13 0 35 56 35 87 0 23 62 83 85 83
32 0 36 -19 15 -79 -22 -60 -18 -79 17 -87 31 -8 67 11 82 43 14 31 14 33 -3
33 -8 0 -18 -9 -21 -20 -3 -11 -16 -25 -27 -31 -23 -12 -23 -10 4 79 9 31 9
48 2 60 -13 21 -84 28 -115 12 -15 -9 -24 -9 -32 -1 -6 6 -26 11 -44 11 -29 0
-36 -5 -48 -32z"/>
<path d="M10196 2065 c-25 -23 -56 -81 -56 -105 0 -5 6 -10 14 -10 7 0 21 21
31 46 18 49 56 77 76 57 8 -8 3 -36 -20 -101 -55 -161 -36 -242 59 -242 23 0
51 5 62 11 19 10 20 9 14 -17 -12 -47 -54 -103 -91 -121 -28 -14 -39 -14 -61
-4 l-27 12 22 15 c30 22 26 68 -7 72 -33 5 -52 -15 -52 -54 0 -54 32 -77 102
-72 63 5 113 36 154 96 24 35 120 404 109 421 -10 17 -43 13 -53 -6 -5 -10
-22 -70 -37 -133 -33 -137 -46 -165 -85 -185 -36 -19 -45 -19 -64 1 -23 23
-20 84 9 170 32 94 32 138 3 158 -33 23 -71 20 -102 -9z"/>
<path d="M1926 1905 c-25 -23 -56 -81 -56 -105 0 -27 28 -5 48 39 13 29 31 53
43 56 41 13 43 -9 10 -103 -57 -166 -36 -242 66 -242 32 0 56 7 73 20 25 19
25 19 46 -1 16 -15 32 -19 60 -17 35 3 41 8 62 48 24 48 29 94 10 88 -6 -2
-17 -25 -25 -51 -16 -55 -46 -78 -62 -48 -8 14 -2 54 25 161 20 78 33 148 30
156 -8 20 -43 18 -54 -3 -5 -10 -22 -70 -37 -133 -33 -137 -46 -165 -85 -185
-36 -19 -45 -19 -64 1 -23 23 -20 84 9 170 32 94 32 138 3 158 -33 23 -71 20
-102 -9z"/>
</g>
</svg>
