<?xml version="1.0" standalone="no"?>
<!DOCTYPE svg PUBLIC "-//W3C//DTD SVG 20010904//EN"
 "http://www.w3.org/TR/2001/REC-SVG-20010904/DTD/svg10.dtd">
<svg version="1.0" xmlns="http://www.w3.org/2000/svg"
 width="1197.000000pt" height="612.000000pt" viewBox="0 0 1197.000000 612.000000"
 preserveAspectRatio="xMidYMid meet">
<metadata>
Created by potrace 1.16, written by Peter Selinger 2001-2019
</metadata>
<g transform="translate(0.000000,612.000000) scale(0.100000,-0.100000)"
fill="#000000" stroke="none">
<path d="M6100 5494 l0 -626 -35 6 c-66 13 -190 57 -242 87 -29 17 -53 26 -53
20 0 -5 5 -13 10 -16 6 -4 19 -24 30 -46 l20 -39 -689 0 -689 0 -7 63 c-19
181 -121 399 -242 520 -83 84 -229 169 -363 213 -78 25 -98 28 -240 28 -144 0
-162 -2 -245 -29 -168 -53 -314 -150 -413 -274 -107 -133 -176 -299 -189 -453
-4 -52 -10 -78 -18 -78 -34 0 -198 55 -253 86 -34 19 -65 34 -67 34 -3 0 9
-21 25 -47 17 -26 30 -51 30 -55 0 -4 -427 -8 -950 -8 -943 0 -950 0 -950 -20
0 -20 7 -20 950 -20 523 0 950 -4 950 -8 0 -4 -14 -30 -30 -56 -17 -26 -27
-46 -23 -44 4 2 36 18 70 35 56 30 216 83 248 83 8 0 14 -26 18 -77 17 -207
139 -437 302 -568 128 -104 304 -177 463 -191 39 -4 72 -10 72 -14 0 -29 -58
-197 -85 -249 -19 -36 -33 -66 -31 -68 2 -2 21 7 41 22 21 14 44 25 51 25 12
0 14 -202 14 -1245 l0 -1245 1260 0 1260 0 0 -620 0 -620 1265 0 1265 0 0 625
c0 591 1 625 18 625 55 0 263 -78 296 -111 25 -24 23 -4 -4 38 -17 26 -30 51
-30 55 0 4 315 8 700 8 l700 0 0 1800 0 1800 680 0 c374 0 680 -4 680 -8 0 -5
-13 -29 -29 -53 -17 -24 -29 -44 -28 -46 1 -1 38 16 82 38 44 21 119 49 168
62 48 12 87 24 87 27 0 3 -39 15 -87 28 -49 12 -122 39 -163 59 -41 21 -79 39
-83 41 -4 2 6 -18 23 -44 16 -26 30 -52 30 -56 0 -4 -684 -8 -1520 -8 l-1520
0 0 620 0 620 -1265 0 -1265 0 0 -626z m2490 -634 l0 -1220 -1225 0 -1225 0 0
1220 0 1220 1225 0 1225 0 0 -1220z m-4775 774 c99 -29 227 -96 292 -152 l43
-37 -275 -275 -275 -275 -275 275 -276 275 43 38 c88 78 251 151 392 177 83
15 229 3 331 -26z m-525 -1049 l-275 -276 -42 48 c-59 67 -117 178 -150 286
-24 79 -27 109 -27 217 0 108 3 137 27 217 33 106 87 212 148 284 l42 51 276
-276 276 -276 -275 -275z m1010 665 c49 -90 84 -197 100 -308 26 -179 -43
-415 -168 -575 l-46 -58 -275 275 -276 276 275 275 275 275 37 -43 c20 -23 55
-76 78 -117z m1800 -1030 l0 -630 1265 0 1265 0 0 625 0 625 820 0 820 0 0
-1780 0 -1780 -680 0 c-564 0 -680 2 -680 13 0 8 14 33 30 55 17 23 28 42 25
42 -3 0 -29 -13 -58 -29 -54 -31 -173 -73 -239 -85 l-38 -7 0 631 0 630 -1265
0 -1265 0 0 -625 0 -625 -1240 0 -1240 0 0 1225 c0 1001 2 1225 13 1225 7 0
28 -11 47 -25 19 -14 37 -25 41 -25 4 0 -8 28 -26 63 -35 66 -72 169 -81 228
l-6 36 73 7 c179 17 399 119 522 243 121 122 223 340 242 521 l7 62 689 0 689
0 -20 -39 c-11 -22 -24 -42 -30 -46 -5 -3 -10 -10 -10 -15 0 -4 31 8 69 27 65
34 206 81 244 82 16 1 17 -35 17 -629z m-2222 327 l273 -273 -58 -45 c-117
-91 -241 -144 -398 -169 -187 -31 -442 43 -598 173 l-49 40 274 274 c150 150
275 273 278 273 3 0 128 -123 278 -273z m4712 -3282 l0 -1225 -1225 0 -1225 0
0 1225 0 1225 1225 0 1225 0 0 -1225z"/>
<path d="M7390 5230 c-51 -56 -96 -144 -116 -226 -31 -132 -9 -317 51 -434 22
-43 104 -130 121 -130 20 0 18 7 -20 53 -77 95 -109 201 -109 362 0 160 37
282 113 368 34 40 37 47 13 47 -9 0 -33 -18 -53 -40z"/>
<path d="M7930 5264 c0 -4 16 -25 36 -47 149 -164 147 -557 -5 -729 -34 -39
-38 -48 -17 -48 21 0 101 92 130 148 37 74 56 163 56 272 0 105 -17 184 -56
264 -33 67 -100 146 -125 146 -10 0 -19 -3 -19 -6z"/>
<path d="M6849 5226 c-103 -28 -209 -120 -257 -224 -31 -66 -41 -170 -22 -227
16 -49 66 -104 115 -126 73 -33 205 -19 256 27 19 17 20 17 35 -4 22 -32 32
-27 44 21 37 141 39 147 70 154 17 3 30 12 30 20 0 19 -231 15 -238 -4 -2 -9
6 -13 25 -13 15 0 38 -3 49 -6 19 -5 21 -10 14 -41 -21 -92 -60 -130 -147
-139 -68 -8 -130 25 -161 86 -20 37 -23 55 -18 105 17 188 133 333 277 343 44
3 65 0 85 -13 35 -22 64 -89 64 -148 0 -34 4 -47 13 -45 15 5 74 234 63 245
-4 4 -23 -9 -41 -30 -29 -34 -34 -36 -46 -21 -21 26 -90 54 -129 53 -19 0 -56
-6 -81 -13z"/>
<path d="M7674 5001 c-45 -28 -64 -59 -64 -107 0 -51 16 -66 92 -88 68 -19 86
-42 66 -84 -19 -39 -73 -64 -123 -57 -55 8 -71 24 -45 42 21 15 27 57 9 68
-20 13 -59 -5 -65 -30 -16 -66 27 -105 118 -105 65 0 115 24 145 69 49 72 13
151 -75 166 -72 12 -91 47 -47 90 26 27 80 34 117 14 l20 -11 -21 -14 c-41
-29 -14 -77 30 -54 26 15 26 71 -1 95 -31 28 -117 31 -156 6z"/>
<path d="M3087 5134 c-4 -4 -7 -63 -7 -130 l0 -123 -127 -3 c-112 -3 -128 -5
-131 -20 -3 -16 8 -18 127 -18 l131 0 0 -130 c0 -123 1 -130 20 -130 19 0 20
7 20 130 l0 130 131 0 c119 0 130 2 127 18 -3 15 -19 17 -130 20 l-127 3 -3
126 c-3 117 -10 148 -31 127z"/>
<path d="M3340 4360 c0 -20 6 -20 256 -20 238 0 255 1 252 18 -3 16 -24 17
-256 20 -247 2 -252 2 -252 -18z"/>
<path d="M7147 1543 c-14 -14 -6 -21 33 -27 22 -3 40 -9 40 -11 0 -14 -111
-453 -120 -472 -8 -19 -18 -23 -50 -23 -29 0 -40 -4 -40 -15 0 -13 21 -15 126
-15 96 0 125 3 122 13 -3 6 -21 13 -41 15 -44 4 -44 8 -14 109 20 64 27 75 75
113 30 23 57 38 61 34 18 -21 102 -234 96 -243 -3 -6 -17 -11 -31 -11 -15 0
-24 -6 -24 -15 0 -12 19 -15 110 -15 91 0 110 3 110 15 0 9 -9 15 -22 15 -13
0 -28 4 -35 8 -6 4 -41 75 -76 157 l-64 150 96 73 c99 76 146 104 194 116 15
3 27 13 27 21 0 12 -17 15 -90 15 -72 0 -90 -3 -90 -15 0 -7 7 -18 16 -23 9
-5 14 -14 10 -20 -5 -9 -240 -193 -317 -249 -14 -10 -10 12 18 126 37 148 39
150 101 151 13 0 22 6 22 15 0 12 -20 15 -118 15 -65 0 -122 -3 -125 -7z"/>
<path d="M10146 5655 c-25 -23 -56 -81 -56 -105 0 -5 6 -10 14 -10 7 0 21 21
31 46 18 49 56 77 76 57 8 -8 3 -36 -20 -101 -55 -161 -36 -242 59 -242 23 0
51 5 62 11 19 10 20 9 14 -17 -12 -47 -54 -103 -91 -121 -28 -14 -39 -14 -61
-4 l-27 12 22 15 c30 22 26 68 -7 72 -33 5 -52 -15 -52 -54 0 -54 32 -77 102
-72 63 5 113 36 154 96 24 35 120 404 109 421 -10 17 -43 13 -53 -6 -5 -10
-22 -70 -37 -133 -33 -137 -46 -165 -85 -185 -36 -19 -45 -19 -64 1 -23 23
-20 84 9 170 32 94 32 138 3 158 -33 23 -71 20 -102 -9z"/>
<path d="M1496 5495 c-25 -23 -56 -81 -56 -105 0 -27 28 -5 48 39 13 29 31 53
43 56 41 13 43 -9 10 -103 -57 -166 -36 -242 66 -242 32 0 56 7 73 20 25 19
25 19 46 -1 16 -15 32 -19 60 -17 35 3 41 8 62 48 24 48 29 94 10 88 -6 -2
-17 -25 -25 -51 -16 -55 -46 -78 -62 -48 -8 14 -2 54 25 161 20 78 33 148 30
156 -8 20 -43 18 -54 -3 -5 -10 -22 -70 -37 -133 -33 -137 -46 -165 -85 -185
-36 -19 -45 -19 -64 1 -23 23 -20 84 9 170 32 94 32 138 3 158 -33 23 -71 20
-102 -9z"/>
<path d="M5241 5494 c-63 -32 -105 -86 -120 -154 -18 -82 10 -164 64 -188 39
-18 115 -14 162 8 45 20 93 61 93 80 0 19 -26 10 -55 -20 -36 -38 -120 -65
-158 -51 -33 13 -51 66 -42 126 l7 45 67 0 c85 1 142 25 161 70 38 93 -64 141
-179 84z m142 -25 c16 -25 0 -67 -31 -83 -16 -8 -56 -18 -90 -22 l-63 -7 10
27 c17 42 42 76 70 91 33 18 91 15 104 -6z"/>
</g>
</svg>
