<?xml version="1.0" standalone="no"?>
<!DOCTYPE svg PUBLIC "-//W3C//DTD SVG 20010904//EN"
 "http://www.w3.org/TR/2001/REC-SVG-20010904/DTD/svg10.dtd">
<svg version="1.0" xmlns="http://www.w3.org/2000/svg"
 width="2082.000000pt" height="434.000000pt" viewBox="0 0 2082.000000 434.000000"
 preserveAspectRatio="xMidYMid meet">
<metadata>
Created by potrace 1.16, written by Peter Selinger 2001-2019
</metadata>
<g transform="translate(0.000000,434.000000) scale(0.100000,-0.100000)"
fill="#000000" stroke="none">
<path d="M6100 3715 c0 -613 0 -625 -19 -625 -37 0 -185 51 -248 86 -35 18
-63 31 -63 28 0 -3 8 -18 19 -32 10 -15 23 -37 30 -49 l12 -23 -689 0 -689 0
-12 83 c-22 159 -88 315 -176 422 -23 28 -45 58 -48 68 -4 9 -15 20 -24 24
-10 4 -40 25 -68 48 -72 60 -186 118 -295 151 -85 25 -109 28 -235 28 -123 -1
-151 -4 -230 -28 -182 -55 -330 -155 -436 -292 -98 -127 -163 -290 -176 -438
-7 -86 -4 -84 -97 -60 -73 19 -147 49 -199 82 -22 13 -40 22 -42 20 -2 -2 9
-23 26 -47 16 -24 29 -48 29 -53 0 -4 -427 -8 -950 -8 -943 0 -950 0 -950 -20
0 -20 7 -20 950 -20 791 0 950 -2 950 -13 0 -8 -14 -33 -30 -55 -17 -23 -28
-42 -25 -42 3 0 29 13 58 29 53 30 173 73 238 85 l36 6 6 -78 c11 -147 88
-335 182 -447 23 -27 45 -58 48 -67 4 -10 12 -18 18 -18 7 0 35 -19 63 -43
113 -96 300 -173 448 -184 l79 -6 -6 -31 c-13 -62 -66 -209 -90 -250 -14 -24
-25 -46 -25 -49 0 -4 19 6 42 23 22 16 47 30 55 30 11 0 13 -163 13 -975 l0
-975 7795 0 7795 0 0 1530 0 1530 680 0 c374 0 680 -4 680 -8 0 -5 -13 -29
-29 -53 -17 -24 -29 -44 -28 -46 1 -1 38 16 82 38 44 21 121 50 170 63 50 13
83 26 75 29 -8 3 -52 16 -97 27 -45 12 -116 39 -158 60 -41 21 -75 36 -75 33
0 -2 11 -19 24 -36 12 -18 26 -40 29 -49 6 -17 -70 -18 -1513 -18 l-1520 0 0
620 0 620 -1265 0 -1265 0 0 -626 0 -627 -37 6 c-61 10 -163 46 -230 82 -35
18 -63 30 -63 26 0 -4 11 -22 25 -41 14 -19 25 -40 25 -47 0 -11 -128 -13
-685 -13 l-685 0 0 620 0 620 -3605 0 -3605 0 0 -625z m7160 -640 l0 -1225
-3560 0 -3560 0 0 1225 0 1225 3560 0 3560 0 0 -1225z m4190 0 l0 -1225 -1225
0 -1225 0 0 1225 0 1225 1225 0 1225 0 0 -1225z m-13664 785 c97 -24 242 -95
311 -152 l53 -43 -278 -278 -277 -277 -275 275 -275 276 45 39 c93 82 264 157
407 180 78 12 194 4 289 -20z m-496 -1055 c-151 -151 -277 -275 -280 -275 -11
1 -87 108 -122 171 -20 37 -49 107 -64 155 -25 79 -28 104 -28 224 1 120 4
145 28 220 34 105 92 215 148 281 l42 50 275 -275 276 -276 -275 -275z m949
755 c119 -153 186 -388 161 -565 -22 -156 -93 -324 -180 -425 l-39 -45 -276
275 -275 275 277 277 c153 153 280 274 284 270 3 -4 25 -32 48 -62z m1861
-1120 l0 -630 3605 0 3605 0 0 625 0 625 685 0 c571 0 685 -2 685 -14 0 -7
-11 -30 -25 -50 -14 -20 -25 -39 -25 -42 0 -3 20 6 44 20 43 25 189 78 254 91
l32 7 0 -631 0 -631 1265 0 1265 0 0 625 0 625 820 0 820 0 0 -1510 0 -1510
-7755 0 -7755 0 0 955 c0 525 4 955 8 955 5 0 29 -13 53 -29 24 -17 45 -28 47
-26 2 2 -8 21 -22 43 -35 55 -54 103 -81 203 l-23 86 82 7 c142 11 322 81 425
165 25 20 57 45 72 56 38 28 123 142 169 228 43 80 85 220 95 315 l7 62 689 0
c651 0 688 -1 682 -17 -3 -10 -17 -33 -30 -51 -14 -18 -23 -35 -21 -37 2 -3
33 11 69 30 56 30 211 83 247 84 9 1 12 -131 12 -629z m-2222 327 l273 -273
-48 -40 c-66 -56 -182 -117 -283 -150 -74 -23 -102 -27 -215 -28 -116 -1 -140
2 -225 28 -111 34 -204 82 -278 144 l-54 45 274 274 c150 150 275 273 278 273
3 0 128 -123 278 -273z"/>
<path d="M12100 4045 c-14 -8 -35 -14 -47 -15 -14 0 -23 -6 -23 -16 0 -12 7
-14 30 -9 l30 7 0 -106 0 -106 -30 0 c-16 0 -30 -4 -30 -10 0 -6 37 -10 90
-10 50 0 90 4 90 9 0 6 -15 11 -32 13 l-33 3 -3 120 c-1 66 -6 123 -10 127 -4
3 -18 0 -32 -7z"/>
<path d="M9310 3965 c-14 -8 -35 -14 -47 -15 -14 0 -23 -6 -23 -16 0 -12 7
-14 30 -9 l30 7 0 -106 0 -106 -30 0 c-16 0 -30 -4 -30 -10 0 -6 37 -10 90
-10 50 0 90 4 90 9 0 6 -15 11 -32 13 l-33 3 -3 120 c-1 66 -6 123 -10 127 -4
3 -18 0 -32 -7z"/>
<path d="M11217 3913 c-4 -3 -7 -51 -7 -105 l0 -98 -100 0 c-82 0 -100 -3
-100 -15 0 -12 18 -15 100 -15 l100 0 0 -100 c0 -79 3 -100 14 -100 21 0 26
23 26 115 l0 84 97 3 c66 2 98 7 101 16 3 9 -21 12 -97 12 l-101 0 0 89 c0
108 -9 139 -33 114z"/>
<path d="M8287 3833 c-4 -3 -7 -51 -7 -105 l0 -98 -100 0 c-82 0 -100 -3 -100
-15 0 -12 18 -15 100 -15 l100 0 0 -100 c0 -79 3 -100 14 -100 21 0 26 23 26
115 l0 84 97 3 c66 2 98 7 101 16 3 9 -21 12 -97 12 l-101 0 0 89 c0 108 -9
139 -33 114z"/>
<path d="M10795 3798 c-31 -17 -45 -39 -45 -74 0 -39 13 -50 79 -70 56 -16 66
-37 31 -69 -22 -20 -95 -24 -113 -6 -8 8 -8 11 1 11 7 0 12 12 12 26 0 22 -4
25 -27 22 -25 -3 -28 -7 -28 -38 0 -41 28 -60 88 -60 73 0 137 48 137 103 0
29 -36 58 -85 71 -38 9 -50 17 -50 31 0 26 45 50 78 41 24 -6 26 -9 16 -27
-13 -25 0 -43 27 -37 29 5 30 52 2 72 -26 18 -93 21 -123 4z"/>
<path d="M7865 3718 c-31 -17 -45 -39 -45 -74 0 -39 13 -50 79 -70 56 -16 66
-37 31 -69 -22 -20 -95 -24 -113 -6 -8 8 -8 11 1 11 7 0 12 12 12 26 0 22 -4
25 -27 22 -25 -3 -28 -7 -28 -38 0 -41 28 -60 88 -60 73 0 137 48 137 103 0
29 -36 58 -85 71 -38 9 -50 17 -50 31 0 26 45 50 78 41 24 -6 26 -9 16 -27
-13 -25 0 -43 27 -37 29 5 30 52 2 72 -26 18 -93 21 -123 4z"/>
<path d="M11570 3700 c0 -20 7 -20 535 -20 528 0 535 0 535 20 0 20 -7 20
-535 20 -528 0 -535 0 -535 -20z"/>
<path d="M8650 3620 c0 -20 7 -20 675 -20 668 0 675 0 675 20 0 20 -7 20 -675
20 -668 0 -675 0 -675 -20z"/>
<path d="M11638 3501 c-38 -34 -31 -53 11 -28 24 14 81 24 81 15 0 -2 -9 -32
-20 -68 -19 -64 -16 -88 13 -77 8 3 19 34 26 76 l13 71 54 0 c47 0 54 2 54 20
0 19 -7 20 -100 20 -96 0 -101 -1 -132 -29z"/>
<path d="M11918 3493 c-33 -5 -36 -19 -8 -28 18 -6 20 -15 20 -117 0 -101 -2
-110 -20 -115 -39 -10 -19 -23 35 -23 30 0 55 5 55 10 0 6 -7 10 -15 10 -13 0
-15 22 -15 135 0 102 -3 135 -12 134 -7 -1 -25 -4 -40 -6z"/>
<path d="M8708 3421 c-38 -34 -31 -53 11 -28 24 14 81 24 81 15 0 -2 -9 -32
-20 -68 -19 -64 -16 -88 13 -77 8 3 19 34 26 76 l13 71 54 0 c47 0 54 2 54 20
0 19 -7 20 -100 20 -96 0 -101 -1 -132 -29z"/>
<path d="M6567 3433 c-14 -14 -6 -21 33 -27 22 -3 40 -9 40 -11 0 -14 -111
-453 -120 -472 -8 -19 -18 -23 -50 -23 -29 0 -40 -4 -40 -15 0 -13 21 -15 126
-15 96 0 125 3 122 13 -3 6 -21 13 -41 15 -44 4 -44 8 -14 109 20 64 27 75 75
113 30 23 57 38 61 34 18 -21 102 -234 96 -243 -3 -6 -17 -11 -31 -11 -15 0
-24 -6 -24 -15 0 -12 19 -15 110 -15 91 0 110 3 110 15 0 9 -9 15 -22 15 -13
0 -28 4 -35 8 -6 4 -41 75 -76 157 l-64 150 96 73 c99 76 146 104 194 116 15
3 27 13 27 21 0 12 -17 15 -90 15 -72 0 -90 -3 -90 -15 0 -7 7 -18 16 -23 9
-5 14 -14 10 -20 -5 -9 -240 -193 -317 -249 -14 -10 -10 12 18 126 37 148 39
150 101 151 13 0 22 6 22 15 0 12 -20 15 -118 15 -65 0 -122 -3 -125 -7z"/>
<path d="M8998 3413 c-33 -5 -36 -19 -8 -28 18 -6 20 -15 20 -117 0 -101 -2
-110 -20 -115 -39 -10 -19 -23 35 -23 30 0 55 5 55 10 0 6 -7 10 -15 10 -13 0
-15 22 -15 135 0 102 -3 135 -12 134 -7 -1 -25 -4 -40 -6z"/>
<path d="M9838 3413 c-33 -5 -37 -18 -8 -26 16 -4 20 -14 20 -44 l0 -39 -58 4
c-52 4 -61 1 -90 -23 -85 -72 7 -195 118 -157 18 7 30 7 30 1 0 -10 40 -12 64
-3 22 8 20 21 -4 27 -19 5 -20 14 -20 136 0 99 -3 131 -12 130 -7 -1 -25 -4
-40 -6z m-7 -133 c14 -8 19 -21 19 -53 0 -48 -6 -59 -38 -76 -46 -24 -92 10
-92 69 0 29 6 43 22 54 26 18 61 20 89 6z"/>
<path d="M12102 3390 c-17 -7 -22 -17 -20 -32 4 -30 38 -37 45 -10 3 12 11 23
18 25 18 8 59 -16 63 -36 3 -14 -4 -17 -33 -17 -81 0 -142 -57 -103 -97 24
-23 93 -29 123 -9 14 9 25 12 25 7 0 -16 38 -23 60 -11 20 11 29 60 10 60 -5
0 -10 -9 -10 -21 0 -12 -5 -19 -12 -17 -8 3 -14 28 -16 65 -2 43 -8 65 -21 77
-22 20 -98 29 -129 16z m108 -115 c0 -35 -42 -62 -75 -47 -14 7 -25 18 -25 26
0 21 39 46 72 46 23 0 28 -4 28 -25z"/>
<path d="M12517 3393 c-4 -3 -34 -5 -66 -4 -50 2 -64 -2 -81 -19 -16 -16 -20
-29 -16 -48 13 -54 10 -100 -7 -117 -42 -41 5 -80 97 -80 83 0 126 19 126 56
0 39 -33 59 -96 59 -93 0 -120 27 -33 32 43 2 56 8 72 29 15 21 17 31 8 47
-14 26 8 37 26 13 15 -20 39 -1 30 23 -6 16 -48 22 -60 9z m-43 -45 c16 -26
-4 -53 -40 -53 -23 0 -30 5 -32 23 -2 13 -1 30 2 38 8 20 56 14 70 -8z m48
-154 c20 -13 5 -34 -32 -44 -75 -20 -161 23 -97 50 21 9 111 5 129 -6z"/>
<path d="M9183 3305 c-20 -8 -39 -28 -50 -49 -16 -34 -16 -38 0 -72 21 -43 74
-69 125 -60 37 6 72 31 72 53 0 17 -17 17 -27 -1 -13 -23 -54 -34 -84 -24 -21
7 -49 43 -49 63 0 3 36 5 80 5 74 0 80 2 80 21 0 33 -17 56 -51 68 -41 14 -57
13 -96 -4z m95 -28 c29 -23 13 -37 -44 -37 -47 0 -55 3 -52 17 7 36 61 47 96
20z"/>
<path d="M9432 3310 c-17 -7 -22 -17 -20 -32 4 -30 38 -37 45 -10 3 12 11 23
18 25 18 8 59 -16 63 -36 3 -14 -4 -17 -33 -17 -81 0 -142 -57 -103 -97 24
-23 93 -29 123 -9 14 9 25 12 25 7 0 -16 38 -23 60 -11 20 11 29 60 10 60 -5
0 -10 -9 -10 -21 0 -12 -5 -19 -12 -17 -8 3 -14 28 -16 65 -2 43 -8 65 -21 77
-22 20 -98 29 -129 16z m108 -115 c0 -35 -42 -62 -75 -47 -14 7 -25 18 -25 26
0 21 39 46 72 46 23 0 28 -4 28 -25z"/>
<path d="M7540 3080 c0 -20 7 -20 1375 -20 1368 0 1375 0 1375 20 0 20 -7 20
-1375 20 -1368 0 -1375 0 -1375 -20z"/>
<path d="M10480 3080 c0 -20 7 -20 1215 -20 1208 0 1215 0 1215 20 0 20 -7 20
-1215 20 -1208 0 -1215 0 -1215 -20z"/>
<path d="M9310 3025 c-14 -8 -35 -14 -47 -15 -14 0 -23 -6 -23 -16 0 -12 7
-14 30 -9 l30 7 0 -106 0 -106 -30 0 c-16 0 -30 -4 -30 -10 0 -6 37 -10 90
-10 50 0 90 4 90 9 0 6 -15 11 -32 13 l-33 3 -3 120 c-1 66 -6 123 -10 127 -4
3 -18 0 -32 -7z"/>
<path d="M12100 3025 c-14 -8 -35 -14 -47 -15 -14 0 -23 -6 -23 -16 0 -12 7
-14 30 -9 l30 7 0 -106 0 -106 -30 0 c-16 0 -30 -4 -30 -10 0 -6 37 -10 90
-10 50 0 90 4 90 9 0 6 -15 11 -32 13 l-33 3 -3 120 c-1 66 -6 123 -10 127 -4
3 -18 0 -32 -7z"/>
<path d="M7231 2992 c-58 -29 -94 -84 -95 -142 -1 -41 4 -54 27 -77 24 -25 35
-28 90 -28 47 0 71 6 100 23 20 13 37 30 37 38 0 20 -20 17 -44 -5 -46 -42
-134 -46 -150 -6 -16 43 5 119 46 162 34 37 118 44 87 7 -17 -20 -3 -44 25
-44 22 0 36 16 36 41 0 5 -9 18 -20 29 -25 25 -92 27 -139 2z"/>
<path d="M8097 2903 c-4 -3 -7 -51 -7 -105 l0 -98 -100 0 c-82 0 -100 -3 -100
-15 0 -12 18 -15 100 -15 l100 0 0 -100 c0 -79 3 -100 14 -100 21 0 26 23 26
115 l0 84 97 3 c66 2 98 7 101 16 3 9 -21 12 -97 12 l-101 0 0 89 c0 108 -9
139 -33 114z"/>
<path d="M11037 2903 c-4 -3 -7 -51 -7 -105 l0 -98 -100 0 c-82 0 -100 -3
-100 -15 0 -12 18 -15 100 -15 l100 0 0 -100 c0 -79 3 -100 14 -100 21 0 26
23 26 115 l0 84 97 3 c66 2 98 7 101 16 3 9 -21 12 -97 12 l-101 0 0 89 c0
108 -9 139 -33 114z"/>
<path d="M7675 2788 c-31 -17 -45 -39 -45 -74 0 -39 13 -50 79 -70 56 -16 66
-37 31 -69 -22 -20 -95 -24 -113 -6 -8 8 -8 11 1 11 7 0 12 12 12 26 0 22 -4
25 -27 22 -25 -3 -28 -7 -28 -38 0 -41 28 -60 88 -60 73 0 137 48 137 103 0
29 -36 58 -85 71 -38 9 -50 17 -50 31 0 26 45 50 78 41 24 -6 26 -9 16 -27
-13 -25 0 -43 27 -37 29 5 30 52 2 72 -26 18 -93 21 -123 4z"/>
<path d="M10615 2788 c-31 -17 -45 -39 -45 -74 0 -39 13 -50 79 -70 56 -16 66
-37 31 -69 -22 -20 -95 -24 -113 -6 -8 8 -8 11 1 11 7 0 12 12 12 26 0 22 -4
25 -27 22 -25 -3 -28 -7 -28 -38 0 -41 28 -60 88 -60 73 0 137 48 137 103 0
29 -36 58 -85 71 -38 9 -50 17 -50 31 0 26 45 50 78 41 24 -6 26 -9 16 -27
-13 -25 0 -43 27 -37 29 5 30 52 2 72 -26 18 -93 21 -123 4z"/>
<path d="M8460 2680 c0 -20 7 -20 865 -20 858 0 865 0 865 20 0 20 -7 20 -865
20 -858 0 -865 0 -865 -20z"/>
<path d="M11400 2680 c0 -20 7 -20 705 -20 698 0 705 0 705 20 0 20 -7 20
-705 20 -698 0 -705 0 -705 -20z"/>
<path d="M11568 2615 c-14 -8 -35 -29 -46 -47 -24 -41 -90 -294 -79 -305 11
-10 25 15 32 58 6 37 7 37 33 23 33 -17 53 -17 104 -2 44 13 88 59 88 92 0 12
-7 31 -15 43 -14 21 -14 24 5 43 27 27 26 75 -2 94 -28 20 -84 20 -120 1z m95
-27 c8 -12 7 -24 -1 -42 -10 -23 -18 -26 -62 -26 -44 0 -50 -3 -50 -21 0 -18
5 -20 48 -18 46 3 47 3 50 -28 4 -43 -13 -72 -53 -89 -38 -15 -81 -6 -91 21
-4 8 2 48 12 88 13 54 25 80 50 105 37 37 78 41 97 10z"/>
<path d="M8574 2510 c-30 -12 -74 -68 -74 -95 0 -37 10 -55 41 -70 36 -19 66
-19 119 0 37 13 43 13 57 0 19 -19 57 -19 73 0 17 21 4 32 -21 17 -16 -10 -21
-10 -26 4 -3 9 -1 24 5 33 16 21 52 89 52 96 0 3 -6 5 -13 5 -7 0 -20 -15 -29
-32 -14 -30 -17 -31 -23 -13 -17 45 -47 65 -94 64 -25 0 -55 -4 -67 -9z m100
-32 c9 -12 16 -39 16 -59 0 -31 -4 -38 -27 -47 -54 -21 -73 -23 -94 -12 -18
10 -21 18 -16 53 10 74 87 114 121 65z"/>
<path d="M8898 2491 c-38 -34 -31 -53 11 -28 24 14 81 24 81 15 0 -2 -9 -32
-20 -68 -19 -64 -16 -88 13 -77 8 3 19 34 26 76 l13 71 54 0 c47 0 54 2 54 20
0 19 -7 20 -100 20 -96 0 -101 -1 -132 -29z"/>
<path d="M11808 2491 c-38 -34 -31 -53 11 -28 24 14 81 24 81 15 0 -2 -9 -32
-20 -68 -19 -64 -16 -88 13 -77 8 3 19 34 26 76 l13 71 54 0 c47 0 54 2 54 20
0 19 -7 20 -100 20 -96 0 -101 -1 -132 -29z"/>
<path d="M9188 2473 c-33 -5 -36 -19 -8 -28 18 -6 20 -15 20 -117 0 -101 -2
-110 -20 -115 -39 -10 -19 -23 35 -23 30 0 55 5 55 10 0 6 -7 10 -15 10 -13 0
-15 22 -15 135 0 102 -3 135 -12 134 -7 -1 -25 -4 -40 -6z"/>
<path d="M10028 2473 c-33 -5 -37 -18 -8 -26 16 -4 20 -14 20 -44 l0 -39 -58
4 c-52 4 -61 1 -90 -23 -85 -72 7 -195 118 -157 18 7 30 7 30 1 0 -10 40 -12
64 -3 22 8 20 21 -4 27 -19 5 -20 14 -20 136 0 99 -3 131 -12 130 -7 -1 -25
-4 -40 -6z m-7 -133 c14 -8 19 -21 19 -53 0 -48 -6 -59 -38 -76 -46 -24 -92
10 -92 69 0 29 6 43 22 54 26 18 61 20 89 6z"/>
<path d="M12098 2473 c-33 -5 -36 -19 -8 -28 18 -6 20 -15 20 -117 0 -101 -2
-110 -20 -115 -39 -10 -19 -23 35 -23 30 0 55 5 55 10 0 6 -7 10 -15 10 -13 0
-15 22 -15 135 0 102 -3 135 -12 134 -7 -1 -25 -4 -40 -6z"/>
<path d="M9373 2365 c-20 -8 -39 -28 -50 -49 -16 -34 -16 -38 0 -72 21 -43 74
-69 125 -60 37 6 72 31 72 53 0 17 -17 17 -27 -1 -13 -23 -54 -34 -84 -24 -21
7 -49 43 -49 63 0 3 36 5 80 5 74 0 80 2 80 21 0 33 -17 56 -51 68 -41 14 -57
13 -96 -4z m95 -28 c29 -23 13 -37 -44 -37 -47 0 -55 3 -52 17 7 36 61 47 96
20z"/>
<path d="M9622 2370 c-17 -7 -22 -17 -20 -32 4 -30 38 -37 45 -10 3 12 11 23
18 25 18 8 59 -16 63 -36 3 -14 -4 -17 -33 -17 -81 0 -142 -57 -103 -97 24
-23 93 -29 123 -9 14 9 25 12 25 7 0 -16 38 -23 60 -11 20 11 29 60 10 60 -5
0 -10 -9 -10 -21 0 -12 -5 -19 -12 -17 -8 3 -14 28 -16 65 -2 43 -8 65 -21 77
-22 20 -98 29 -129 16z m108 -115 c0 -35 -42 -62 -75 -47 -14 7 -25 18 -25 26
0 21 39 46 72 46 23 0 28 -4 28 -25z"/>
<path d="M12272 2370 c-17 -7 -22 -17 -20 -32 4 -30 38 -37 45 -10 3 12 11 23
18 25 18 8 59 -16 63 -36 3 -14 -4 -17 -33 -17 -81 0 -142 -57 -103 -97 24
-23 93 -29 123 -9 14 9 25 12 25 7 0 -16 38 -23 60 -11 20 11 29 60 10 60 -5
0 -10 -9 -10 -21 0 -12 -5 -19 -12 -17 -8 3 -14 28 -16 65 -2 43 -8 65 -21 77
-22 20 -98 29 -129 16z m108 -115 c0 -35 -42 -62 -75 -47 -14 7 -25 18 -25 26
0 21 39 46 72 46 23 0 28 -4 28 -25z"/>
<path d="M12697 2373 c-4 -3 -34 -5 -66 -4 -50 2 -64 -2 -81 -19 -16 -16 -20
-29 -16 -48 13 -54 10 -100 -7 -117 -42 -41 5 -80 97 -80 83 0 126 19 126 56
0 39 -33 59 -96 59 -93 0 -120 27 -33 32 43 2 56 8 72 29 15 21 17 31 8 47
-14 26 8 37 26 13 15 -20 39 -1 30 23 -6 16 -48 22 -60 9z m-43 -45 c16 -26
-4 -53 -40 -53 -23 0 -30 5 -32 23 -2 13 -1 30 2 38 8 20 56 14 70 -8z m48
-154 c20 -13 5 -34 -32 -44 -75 -20 -161 23 -97 50 21 9 111 5 129 -6z"/>
<path d="M16240 3450 c-51 -56 -96 -144 -116 -226 -31 -132 -9 -317 51 -434
22 -43 104 -130 121 -130 20 0 18 7 -20 53 -77 95 -109 201 -109 362 0 160 37
282 113 368 34 40 37 47 13 47 -9 0 -33 -18 -53 -40z"/>
<path d="M16790 3484 c0 -4 16 -25 36 -47 149 -164 147 -557 -5 -729 -34 -39
-38 -48 -17 -48 21 0 101 92 130 148 37 74 56 163 56 272 0 105 -17 184 -56
264 -33 67 -100 146 -125 146 -10 0 -19 -3 -19 -6z"/>
<path d="M15709 3446 c-103 -28 -209 -120 -257 -224 -31 -66 -41 -170 -22
-227 16 -49 66 -104 115 -126 73 -33 205 -19 256 27 19 17 20 17 35 -4 22 -32
32 -27 44 21 37 141 39 147 70 154 17 3 30 12 30 20 0 19 -231 15 -238 -4 -2
-9 6 -13 25 -13 15 0 38 -3 49 -6 19 -5 21 -10 14 -41 -21 -92 -60 -130 -147
-139 -68 -8 -130 25 -161 86 -20 37 -23 55 -18 105 17 188 133 333 277 343 44
3 65 0 85 -13 35 -22 64 -89 64 -148 0 -34 4 -47 13 -45 15 5 74 234 63 245
-4 4 -23 -9 -41 -30 -29 -34 -34 -36 -46 -21 -21 26 -90 54 -129 53 -19 0 -56
-6 -81 -13z"/>
<path d="M16534 3221 c-45 -28 -64 -59 -64 -107 0 -51 16 -66 92 -88 68 -19
86 -42 66 -84 -19 -39 -73 -64 -123 -57 -55 8 -71 24 -45 42 21 15 27 57 9 68
-20 13 -59 -5 -65 -30 -16 -66 27 -105 118 -105 65 0 115 24 145 69 49 72 13
151 -75 166 -72 12 -91 47 -47 90 26 27 80 34 117 14 l20 -11 -21 -14 c-41
-29 -14 -77 30 -54 26 15 26 71 -1 95 -31 28 -117 31 -156 6z"/>
<path d="M3087 3354 c-4 -4 -7 -63 -7 -130 l0 -123 -127 -3 c-112 -3 -128 -5
-131 -20 -3 -16 8 -18 127 -18 l131 0 0 -130 c0 -123 1 -130 20 -130 19 0 20
7 20 130 l0 130 131 0 c119 0 130 2 127 18 -3 15 -19 17 -130 20 l-127 3 -3
126 c-3 117 -10 148 -31 127z"/>
<path d="M3966 1375 c-25 -23 -56 -81 -56 -105 0 -5 6 -10 14 -10 7 0 21 21
31 46 18 49 56 77 76 57 8 -8 3 -36 -20 -101 -55 -161 -36 -242 59 -242 23 0
51 5 62 11 19 10 20 9 14 -17 -12 -47 -54 -103 -91 -121 -28 -14 -39 -14 -61
-4 l-27 12 22 15 c30 22 26 68 -7 72 -33 5 -52 -15 -52 -54 0 -54 32 -77 102
-72 63 5 113 36 154 96 24 35 120 404 109 421 -10 17 -43 13 -53 -6 -5 -10
-22 -70 -37 -133 -33 -137 -46 -165 -85 -185 -36 -19 -45 -19 -64 1 -23 23
-20 84 9 170 32 94 32 138 3 158 -33 23 -71 20 -102 -9z"/>
<path d="M3340 2580 c0 -20 6 -20 256 -20 238 0 255 1 252 18 -3 16 -24 17
-256 20 -247 2 -252 2 -252 -18z"/>
<path d="M19006 3875 c-25 -23 -56 -81 -56 -105 0 -5 6 -10 14 -10 7 0 21 21
31 46 18 49 56 77 76 57 8 -8 3 -36 -20 -101 -55 -161 -36 -242 59 -242 23 0
51 5 62 11 19 10 20 9 14 -17 -12 -47 -54 -103 -91 -121 -28 -14 -39 -14 -61
-4 l-27 12 22 15 c30 22 26 68 -7 72 -33 5 -52 -15 -52 -54 0 -54 32 -77 102
-72 63 5 113 36 154 96 24 35 120 404 109 421 -10 17 -43 13 -53 -6 -5 -10
-22 -70 -37 -133 -33 -137 -46 -165 -85 -185 -36 -19 -45 -19 -64 1 -23 23
-20 84 9 170 32 94 32 138 3 158 -33 23 -71 20 -102 -9z"/>
<path d="M1496 3715 c-25 -23 -56 -81 -56 -105 0 -27 28 -5 48 39 13 29 31 53
43 56 41 13 43 -9 10 -103 -57 -166 -36 -242 66 -242 32 0 56 7 73 20 25 19
25 19 46 -1 16 -15 32 -19 60 -17 35 3 41 8 62 48 24 48 29 94 10 88 -6 -2
-17 -25 -25 -51 -16 -55 -46 -78 -62 -48 -8 14 -2 54 25 161 20 78 33 148 30
156 -8 20 -43 18 -54 -3 -5 -10 -22 -70 -37 -133 -33 -137 -46 -165 -85 -185
-36 -19 -45 -19 -64 1 -23 23 -20 84 9 170 32 94 32 138 3 158 -33 23 -71 20
-102 -9z"/>
<path d="M5241 3714 c-63 -32 -105 -86 -120 -154 -18 -82 10 -164 64 -188 39
-18 115 -14 162 8 45 20 93 61 93 80 0 19 -26 10 -55 -20 -36 -38 -120 -65
-158 -51 -33 13 -51 66 -42 126 l7 45 67 0 c85 1 142 25 161 70 38 93 -64 141
-179 84z m142 -25 c16 -25 0 -67 -31 -83 -16 -8 -56 -18 -90 -22 l-63 -7 10
27 c17 42 42 76 70 91 33 18 91 15 104 -6z"/>
<path d="M14134 3726 c-81 -35 -154 -139 -154 -219 0 -46 20 -95 49 -121 30
-28 119 -33 176 -12 67 26 134 96 92 96 -7 0 -26 -14 -42 -30 -32 -34 -122
-65 -155 -55 -37 12 -53 50 -47 109 12 119 82 216 156 216 49 0 56 -8 30 -36
-41 -44 12 -91 55 -48 19 18 20 34 5 67 -21 45 -100 61 -165 33z"/>
</g>
</svg>
