<?xml version="1.0" standalone="no"?>
<!DOCTYPE svg PUBLIC "-//W3C//DTD SVG 20010904//EN"
 "http://www.w3.org/TR/2001/REC-SVG-20010904/DTD/svg10.dtd">
<svg version="1.0" xmlns="http://www.w3.org/2000/svg"
 width="1615.000000pt" height="434.000000pt" viewBox="0 0 1615.000000 434.000000"
 preserveAspectRatio="xMidYMid meet">
<metadata>
Created by potrace 1.16, written by Peter Selinger 2001-2019
</metadata>
<g transform="translate(0.000000,434.000000) scale(0.100000,-0.100000)"
fill="#000000" stroke="none">
<path d="M6100 3715 c0 -613 0 -625 -19 -625 -37 0 -185 51 -248 86 -35 18
-63 31 -63 28 0 -3 8 -18 19 -32 10 -15 23 -37 30 -49 l12 -23 -689 0 -689 0
-12 83 c-22 159 -88 315 -176 422 -23 28 -45 58 -48 68 -4 9 -15 20 -24 24
-10 4 -40 25 -68 48 -72 60 -186 118 -295 151 -85 25 -109 28 -235 28 -123 -1
-151 -4 -230 -28 -182 -55 -330 -155 -436 -292 -98 -127 -163 -290 -176 -438
-7 -86 -4 -84 -97 -60 -73 19 -147 49 -199 82 -22 13 -40 22 -42 20 -2 -2 9
-23 26 -47 16 -24 29 -48 29 -53 0 -4 -427 -8 -950 -8 -943 0 -950 0 -950 -20
0 -20 7 -20 950 -20 791 0 950 -2 950 -13 0 -8 -14 -33 -30 -55 -17 -23 -28
-42 -25 -42 3 0 29 13 58 29 53 30 173 73 238 85 l36 6 6 -78 c11 -147 88
-335 182 -447 23 -27 45 -58 48 -67 4 -10 12 -18 18 -18 7 0 35 -19 63 -43
113 -96 300 -173 448 -184 l79 -6 -6 -31 c-13 -62 -66 -209 -90 -250 -14 -24
-25 -46 -25 -49 0 -4 19 6 42 23 22 16 47 30 55 30 11 0 13 -163 13 -975 l0
-975 5460 0 5460 0 0 1530 0 1530 680 0 681 0 -17 -33 c-9 -17 -23 -40 -32
-50 -26 -30 -9 -27 73 14 44 21 121 50 170 63 50 13 83 26 75 29 -8 2 -51 14
-95 26 -44 12 -115 39 -157 60 -43 21 -78 37 -78 34 0 -2 11 -21 25 -41 14
-20 25 -42 25 -49 0 -11 -298 -13 -1515 -13 l-1515 0 0 620 0 620 -1270 0
-1270 0 0 -626 0 -626 -37 7 c-69 12 -187 55 -237 86 -53 33 -71 31 -39 -4 20
-21 43 -60 43 -71 0 -3 -310 -6 -690 -6 l-690 0 0 620 0 620 -1265 0 -1265 0
0 -625z m2490 -640 l0 -1225 -1225 0 -1225 0 0 1225 0 1225 1225 0 1225 0 0
-1225z m4190 0 l0 -1225 -1225 0 -1225 0 0 1225 0 1225 1225 0 1225 0 0 -1225z
m-8994 785 c97 -24 242 -95 311 -152 l53 -43 -278 -278 -277 -277 -275 275
-275 276 45 39 c93 82 264 157 407 180 78 12 194 4 289 -20z m-496 -1055
c-151 -151 -277 -275 -280 -275 -11 1 -87 108 -122 171 -20 37 -49 107 -64
155 -25 79 -28 104 -28 224 1 120 4 145 28 220 34 105 92 215 148 281 l42 50
275 -275 276 -276 -275 -275z m949 755 c119 -153 186 -388 161 -565 -22 -156
-93 -324 -180 -425 l-39 -45 -276 275 -275 275 277 277 c153 153 280 274 284
270 3 -4 25 -32 48 -62z m1861 -1120 l0 -630 1265 0 1265 0 0 625 0 625 690 0
c380 0 690 -4 690 -8 0 -4 -13 -29 -30 -55 -16 -26 -27 -47 -25 -47 3 0 29 13
58 29 51 29 171 72 235 84 l32 7 0 -630 0 -630 1270 0 1270 0 0 625 0 625 815
0 815 0 0 -1510 0 -1510 -5415 0 -5415 0 0 955 c0 525 4 955 8 955 5 0 29 -13
53 -29 24 -17 45 -28 47 -26 2 2 -8 21 -22 43 -35 55 -54 103 -81 203 l-23 86
82 7 c142 11 322 81 425 165 25 20 57 45 72 56 38 28 123 142 169 228 43 80
85 220 95 315 l7 62 689 0 c651 0 688 -1 682 -17 -3 -10 -17 -33 -30 -51 -14
-18 -23 -35 -21 -37 2 -3 33 11 69 30 56 30 211 83 247 84 9 1 12 -131 12
-629z m-2222 327 l273 -273 -48 -40 c-66 -56 -182 -117 -283 -150 -74 -23
-102 -27 -215 -28 -116 -1 -140 2 -225 28 -111 34 -204 82 -278 144 l-54 45
274 274 c150 150 275 273 278 273 3 0 128 -123 278 -273z"/>
<path d="M6987 3473 c-14 -14 -6 -21 33 -27 22 -3 40 -9 40 -11 0 -14 -111
-453 -120 -472 -8 -19 -18 -23 -50 -23 -29 0 -40 -4 -40 -15 0 -13 21 -15 126
-15 96 0 125 3 122 13 -3 6 -21 13 -41 15 -44 4 -44 8 -14 109 20 64 27 75 75
113 30 23 57 38 61 34 18 -21 102 -234 96 -243 -3 -6 -17 -11 -31 -11 -15 0
-24 -6 -24 -15 0 -12 19 -15 110 -15 91 0 110 3 110 15 0 9 -9 15 -22 15 -13
0 -28 4 -35 8 -6 4 -41 75 -76 157 l-64 150 96 73 c99 76 146 104 194 116 15
3 27 13 27 21 0 12 -17 15 -90 15 -72 0 -90 -3 -90 -15 0 -7 7 -18 16 -23 9
-5 14 -14 10 -20 -5 -9 -240 -193 -317 -249 -14 -10 -10 12 18 126 37 148 39
150 101 151 13 0 22 6 22 15 0 12 -20 15 -118 15 -65 0 -122 -3 -125 -7z"/>
<path d="M7593 3042 c-11 -7 -43 -72 -43 -87 0 -3 6 -5 14 -5 8 0 20 15 26 34
11 35 35 53 46 35 3 -6 -11 -78 -31 -161 -30 -119 -42 -152 -57 -155 -10 -3
-18 -12 -18 -20 0 -11 14 -13 68 -11 64 3 92 19 44 26 -15 2 -22 9 -18 17 2 8
8 30 12 50 5 28 10 35 23 29 42 -18 72 -15 115 10 89 52 115 181 47 233 -23
18 -83 16 -109 -3 -21 -15 -25 -15 -41 0 -19 17 -58 21 -78 8z m203 -41 c9
-17 9 -35 0 -74 -16 -69 -31 -94 -65 -112 -27 -13 -31 -13 -52 4 -22 17 -22
20 -9 82 22 103 95 162 126 100z"/>
<path d="M11570 3450 c-51 -56 -96 -144 -116 -226 -31 -132 -9 -317 51 -434
22 -43 104 -130 121 -130 20 0 18 7 -20 53 -77 95 -109 201 -109 362 0 160 37
282 113 368 34 40 37 47 13 47 -9 0 -33 -18 -53 -40z"/>
<path d="M12110 3484 c0 -4 16 -25 36 -47 149 -164 147 -557 -5 -729 -34 -39
-38 -48 -17 -48 21 0 101 92 130 148 37 74 56 163 56 272 0 105 -17 184 -56
264 -33 67 -100 146 -125 146 -10 0 -19 -3 -19 -6z"/>
<path d="M11039 3446 c-103 -28 -209 -120 -257 -224 -31 -66 -41 -170 -22
-227 16 -49 66 -104 115 -126 73 -33 205 -19 256 27 19 17 20 17 35 -4 22 -32
32 -27 44 21 37 141 39 147 70 154 17 3 30 12 30 20 0 19 -231 15 -238 -4 -2
-9 6 -13 25 -13 15 0 38 -3 49 -6 19 -5 21 -10 14 -41 -21 -92 -60 -130 -147
-139 -68 -8 -130 25 -161 86 -20 37 -23 55 -18 105 17 188 133 333 277 343 44
3 65 0 85 -13 35 -22 64 -89 64 -148 0 -34 4 -47 13 -45 15 5 74 234 63 245
-4 4 -23 -9 -41 -30 -29 -34 -34 -36 -46 -21 -21 26 -90 54 -129 53 -19 0 -56
-6 -81 -13z"/>
<path d="M11854 3221 c-45 -28 -64 -59 -64 -107 0 -51 16 -66 92 -88 68 -19
86 -42 66 -84 -19 -39 -73 -64 -123 -57 -55 8 -71 24 -45 42 21 15 27 57 9 68
-20 13 -59 -5 -65 -30 -16 -66 27 -105 118 -105 65 0 115 24 145 69 49 72 13
151 -75 166 -72 12 -91 47 -47 90 26 27 80 34 117 14 l20 -11 -21 -14 c-41
-29 -14 -77 30 -54 26 15 26 71 -1 95 -31 28 -117 31 -156 6z"/>
<path d="M3087 3354 c-4 -4 -7 -63 -7 -130 l0 -123 -127 -3 c-112 -3 -128 -5
-131 -20 -3 -16 8 -18 127 -18 l131 0 0 -130 c0 -123 1 -130 20 -130 19 0 20
7 20 130 l0 130 131 0 c119 0 130 2 127 18 -3 15 -19 17 -130 20 l-127 3 -3
126 c-3 117 -10 148 -31 127z"/>
<path d="M3966 1375 c-25 -23 -56 -81 -56 -105 0 -5 6 -10 14 -10 7 0 21 21
31 46 18 49 56 77 76 57 8 -8 3 -36 -20 -101 -55 -161 -36 -242 59 -242 23 0
51 5 62 11 19 10 20 9 14 -17 -12 -47 -54 -103 -91 -121 -28 -14 -39 -14 -61
-4 l-27 12 22 15 c30 22 26 68 -7 72 -33 5 -52 -15 -52 -54 0 -54 32 -77 102
-72 63 5 113 36 154 96 24 35 120 404 109 421 -10 17 -43 13 -53 -6 -5 -10
-22 -70 -37 -133 -33 -137 -46 -165 -85 -185 -36 -19 -45 -19 -64 1 -23 23
-20 84 9 170 32 94 32 138 3 158 -33 23 -71 20 -102 -9z"/>
<path d="M3340 2580 c0 -20 6 -20 256 -20 238 0 255 1 252 18 -3 16 -24 17
-256 20 -247 2 -252 2 -252 -18z"/>
<path d="M14336 3875 c-25 -23 -56 -81 -56 -105 0 -5 6 -10 14 -10 7 0 21 21
31 46 18 49 56 77 76 57 8 -8 3 -36 -20 -101 -55 -161 -36 -242 59 -242 23 0
51 5 62 11 19 10 20 9 14 -17 -12 -47 -54 -103 -91 -121 -28 -14 -39 -14 -61
-4 l-27 12 22 15 c30 22 26 68 -7 72 -33 5 -52 -15 -52 -54 0 -54 32 -77 102
-72 63 5 113 36 154 96 24 35 120 404 109 421 -10 17 -43 13 -53 -6 -5 -10
-22 -70 -37 -133 -33 -137 -46 -165 -85 -185 -36 -19 -45 -19 -64 1 -23 23
-20 84 9 170 32 94 32 138 3 158 -33 23 -71 20 -102 -9z"/>
<path d="M1496 3715 c-25 -23 -56 -81 -56 -105 0 -27 28 -5 48 39 13 29 31 53
43 56 41 13 43 -9 10 -103 -57 -166 -36 -242 66 -242 32 0 56 7 73 20 25 19
25 19 46 -1 16 -15 32 -19 60 -17 35 3 41 8 62 48 24 48 29 94 10 88 -6 -2
-17 -25 -25 -51 -16 -55 -46 -78 -62 -48 -8 14 -2 54 25 161 20 78 33 148 30
156 -8 20 -43 18 -54 -3 -5 -10 -22 -70 -37 -133 -33 -137 -46 -165 -85 -185
-36 -19 -45 -19 -64 1 -23 23 -20 84 9 170 32 94 32 138 3 158 -33 23 -71 20
-102 -9z"/>
<path d="M5241 3714 c-63 -32 -105 -86 -120 -154 -18 -82 10 -164 64 -188 39
-18 115 -14 162 8 45 20 93 61 93 80 0 19 -26 10 -55 -20 -36 -38 -120 -65
-158 -51 -33 13 -51 66 -42 126 l7 45 67 0 c85 1 142 25 161 70 38 93 -64 141
-179 84z m142 -25 c16 -25 0 -67 -31 -83 -16 -8 -56 -18 -90 -22 l-63 -7 10
27 c17 42 42 76 70 91 33 18 91 15 104 -6z"/>
<path d="M9464 3726 c-81 -35 -154 -139 -154 -219 0 -46 20 -95 49 -121 30
-28 119 -33 176 -12 67 26 134 96 92 96 -7 0 -26 -14 -42 -30 -32 -34 -122
-65 -155 -55 -37 12 -53 50 -47 109 12 119 82 216 156 216 49 0 56 -8 30 -36
-41 -44 12 -91 55 -48 19 18 20 34 5 67 -21 45 -100 61 -165 33z"/>
</g>
</svg>
